<svg  viewBox="0 0 66 18" fill="none" xmlns="http://www.w3.org/2000/svg"><path d="M53.943 2.745h-2.884v13.723h2.884V2.745ZM34.307 6.843a4.618 4.618 0 0 0-2.12-.472c-.854 0-1.61.18-2.277.54a3.74 3.74 0 0 0-1.019.794V6.52h-2.756v9.955h2.891v-4.921c0-.614.105-1.124.307-1.513.188-.375.48-.682.854-.877a2.597 2.597 0 0 1 1.229-.284c.644 0 1.138.187 1.49.576.352.382.525.974.525 1.776v5.243h2.884v-5.7c0-1.011-.18-1.843-.54-2.487a3.46 3.46 0 0 0-1.468-1.446Zm-11.67.604c-.84-.711-2.015-1.071-3.536-1.071-.787 0-1.573.105-2.33.315a6.205 6.205 0 0 0-1.962.891l1.04 2.015c.39-.3.832-.532 1.304-.674a5.031 5.031 0 0 1 1.566-.247c.779 0 1.356.172 1.73.517.375.344.562.824.562 1.438H18.72c-1.011 0-1.835.127-2.465.382-.629.255-1.086.607-1.378 1.049a2.936 2.936 0 0 0 .008 3.086c.314.472.756.846 1.273 1.079.554.262 1.221.396 2 .396.877 0 1.596-.164 2.15-.501a2.57 2.57 0 0 0 .884-.884v1.236h2.704v-5.678c0-1.521-.42-2.637-1.258-3.349Zm-2.457 6.884c-.39.232-.84.352-1.296.345-.502 0-.907-.105-1.191-.322a1.024 1.024 0 0 1-.435-.877 1.045 1.045 0 0 1 .382-.831c.255-.225.72-.337 1.393-.337h1.978v1.019c-.15.419-.45.771-.831 1.003Zm25.7-6.769a3.335 3.335 0 0 0-.78-.637c-.628-.367-1.363-.555-2.202-.555a5.061 5.061 0 0 0-2.531.63 4.564 4.564 0 0 0-1.783 1.775c-.435.764-.66 1.67-.66 2.72 0 1.033.218 1.932.66 2.696a4.653 4.653 0 0 0 1.783 1.79 4.992 4.992 0 0 0 2.532.637c.876 0 1.625-.187 2.247-.554.33-.195.614-.442.861-.742v1.154h2.757V2.745H45.88v4.817Zm-.292 5.408a2.43 2.43 0 0 1-.914.951 2.45 2.45 0 0 1-1.274.33 2.465 2.465 0 0 1-1.295-.337 2.376 2.376 0 0 1-.914-.952c-.225-.412-.345-.906-.345-1.468 0-.577.112-1.071.345-1.483a2.5 2.5 0 0 1 .913-.944 2.53 2.53 0 0 1 1.296-.33c.45-.007.884.113 1.274.33.382.225.704.554.914.944.224.405.344.899.344 1.483-.007.57-.12 1.064-.344 1.476Zm19.737-4.202a4.654 4.654 0 0 0-1.858-1.775 5.578 5.578 0 0 0-2.636-.622c-1.012 0-1.918.217-2.72.66a4.898 4.898 0 0 0-1.895 1.812c-.464.771-.696 1.655-.696 2.652 0 .989.232 1.865.704 2.637a4.893 4.893 0 0 0 1.985 1.82c.854.442 1.85.667 2.989.667.899 0 1.693-.143 2.382-.42a4.516 4.516 0 0 0 1.723-1.191l-1.536-1.663c-.315.307-.69.554-1.101.72a3.91 3.91 0 0 1-1.4.239c-.593 0-1.11-.105-1.544-.322a2.34 2.34 0 0 1-1.019-.944 2.874 2.874 0 0 1-.285-.727h7.529c.015-.12.022-.255.037-.397.015-.142.015-.27.015-.382.015-1.071-.217-1.992-.674-2.764Zm-5.783.112c.397-.217.847-.33 1.304-.322a2.62 2.62 0 0 1 1.296.322c.367.21.666.525.868.9.143.269.233.554.278.846H58.38c.045-.292.142-.577.277-.847.21-.374.51-.689.884-.899Z" fill="#fff" fill-opacity=".85"/><path fill-rule="evenodd" clip-rule="evenodd" d="M1.101 16.386v1.423l.375.008v-1.424h1.093v-3.446c0-.561.308-1.086.794-1.37l5.559-3.214 2.666-1.558a1.28 1.28 0 0 0 .645-1.109v-4.09h-1.094V.183h-.375v1.423H9.671v2.442c0 .562-.307 1.086-.794 1.371L2.562 9.067V1.614H1.468V.19h-.374v1.424H0v14.772h1.101Zm9.67 0v1.423h.375v-1.423h1.094v-4.697a2.033 2.033 0 0 0-1.004-1.73l-1.528-.884-2.562 1.483 1.738 1.004c.495.284.794.809.794 1.37v3.454h1.094Z" fill="url(#a)" fill-opacity=".96"/><defs><linearGradient id="a" x1="6.116" y1=".183" x2="6.116" y2="17.817" gradientUnits="userSpaceOnUse"><stop stop-color="#FFEB34"/><stop offset="1" stop-color="#1EAF76"/></linearGradient></defs></svg>