<svg viewBox="0 0 14 15" fill="none" xmlns="http://www.w3.org/2000/svg"><path d="m13.79 6.274-.071-.3H7.204v2.758h3.892c-.404 1.919-2.28 2.93-3.811 2.93-1.115 0-2.29-.47-3.067-1.223A4.378 4.378 0 0 1 2.91 7.348c0-1.161.522-2.323 1.282-3.087.76-.765 1.906-1.192 3.047-1.192 1.306 0 2.242.693 2.592 1.01l1.96-1.95C11.217 1.624 9.638.352 7.177.352c-1.899 0-3.72.727-5.05 2.053C.812 3.712.132 5.6.132 7.353c0 1.753.643 3.547 1.916 4.864 1.36 1.404 3.286 2.138 5.27 2.138 1.804 0 3.514-.707 4.733-1.99 1.199-1.263 1.819-3.01 1.819-4.842 0-.771-.078-1.229-.082-1.249Z" fill="#000"/></svg>