<svg viewBox="0 0 86 75" fill="none" xmlns="http://www.w3.org/2000/svg"><mask id="a" style="mask-type:luminance" maskUnits="userSpaceOnUse" x="0" y="63" width="18" height="10"><path d="M17.73 67.034c.225-.819-.283-1.64-1.54-2.301-2.696-1.415-7.705-1.798-11.766-.529-2.303.72-3.414 1.691-3.456 2.656-.005.014-.08.197-.074.41.005.212.063 1.856.075 2.135.03.698.62 1.386 1.728 1.967 2.695 1.415 7.34 1.902 11.4.633 2.551-.797 3.785-1.944 3.682-3.038-.024-.261-.042-1.381-.048-1.933Z" fill="#fff"/></mask><g mask="url(#a)"><path d="M9.732 77.574a9.488 9.488 0 1 0 0-18.975 9.488 9.488 0 0 0 0 18.975Z" fill="url(#b)"/></g><mask id="c" style="mask-type:luminance" maskUnits="userSpaceOnUse" x="0" y="60" width="18" height="10"><path d="M17.73 63.609c.225-.819-.283-1.64-1.54-2.301-2.696-1.415-7.705-1.798-11.766-.529-2.303.72-3.414 1.691-3.456 2.656-.005.014-.08.197-.074.41.005.212.063 1.856.075 2.135.03.698.62 1.386 1.728 1.967 2.695 1.415 7.34 1.902 11.4.633 2.551-.797 3.785-1.944 3.682-3.038-.024-.261-.042-1.381-.048-1.933Z" fill="#fff"/></mask><g mask="url(#c)"><path d="M9.732 74.15a9.488 9.488 0 1 0 0-18.976 9.488 9.488 0 0 0 0 18.976Z" fill="url(#d)"/><path d="M14.1 66.15c-4.06 1.268-8.706.782-11.4-.633C.005 64.102.367 62.049 4.427 60.78c4.06-1.27 9.07-.887 11.765.528 2.695 1.415 1.969 3.572-2.091 4.841Z" fill="url(#e)"/><path d="M4.207 64.687c-1.182-.625-1.672-1.381-1.345-2.075.269-.572 1.055-1.063 2.337-1.458 3.415-1.052 7.418-.506 9.453.542l.055.03c1.09.575 1.523 1.308 1.192 2.011-.3.64-1.188 1.204-2.565 1.628-3.359 1.035-7.051.392-9.06-.643l-.067-.035Z" fill="url(#f)"/><path d="M4.393 64.82c-1.117-.586-1.57-1.296-1.246-1.948.26-.523 1.002-.98 2.203-1.355 3.302-1.032 7.15-.533 9.093.461l.055.029c1.022.536 1.419 1.224 1.09 1.885-.296.595-1.141 1.125-2.444 1.532-3.229 1.01-6.765.413-8.685-.569l-.067-.034Z" fill="url(#g)"/><path d="M9.1 62.7v-.004l.014.347-1.983.23.02.507 2.044-.236a.956.956 0 0 1 .004.048l-.02-.508a.468.468 0 0 0-.004-.048l-.061.007-.01-.257-.003-.058-.003-.08-.001-.024.003.075Z" fill="url(#h)"/><path d="M6.933 63.257c-.008-.237.107-.464.266-.632l-.02-.508c-.159.168-.274.397-.265.632l.019.508Z" fill="url(#i)"/><path d="M10.037 63.586a1.554 1.554 0 0 1 0-.139l2.115-.245a.611.611 0 0 1 .044.201l-.02-.507a.614.614 0 0 0-.044-.201l-.14.016-.01-.257-.016-.018c-.181-.203-.483-.297-.747-.326a2.453 2.453 0 0 0-.78.059.897.897 0 0 0-.323.12c-.132.09-.18.234-.173.388l.02.508a.628.628 0 0 1 .006-.117l.005-.023c.032-.165.162-.27.315-.323a2.17 2.17 0 0 1 .463-.097 2.53 2.53 0 0 1 .21-.015h.006c.238-.008.48.025.7.118l.037.016-1.692.196c.005 0 .006.3.002.33a.559.559 0 0 1-.131.31c-.148.17-.37.25-.581.306a3.787 3.787 0 0 1-.872.12 3.49 3.49 0 0 1-1.066-.133c-.34-.1-.704-.252-.947-.517l-.159.018-.01-.257a1.113 1.113 0 0 1-.158-.526l.02.507.004.051c.006.08.022.158.047.236l-1.526.176-.146-.24.02.507.146.24 1.783-.205c.019-.002.121.116.143.133a1.8 1.8 0 0 0 .175.122c.16.1.334.17.513.23.38.123.783.176 1.184.165a3.66 3.66 0 0 0 .707-.083c.225-.051.484-.12.664-.267a.576.576 0 0 0 .215-.365c.002-.01-.001-.117-.003-.21v-.002Z" fill="url(#j)"/><path d="m12.965 63.109 1.23-.142-.02-.508-1.328.153.02.508.094-.01c0 .046 0 .092-.005.133a.686.686 0 0 1-.035.15l-.976.113-.018-.032.02.507.018.032.976-.112.01-.031a.722.722 0 0 0 .025-.118v-.002a1.14 1.14 0 0 0 .006-.184l-.018-.457Z" fill="url(#k)"/><path d="M12.846 62.612c.067.13.105.268.114.414a.916.916 0 0 1-.04.366l-.976.113-.018-.032c.097-.117.17-.242.218-.373a.571.571 0 0 0-.012-.406l-2.119.245a.95.95 0 0 1 .008.138c0 .043 0 .08.002.112.01.205-.083.374-.279.51-.196.135-.514.228-.954.279a3.665 3.665 0 0 1-1.387-.095c-.442-.119-.77-.296-.984-.53l-1.783.207-.146-.241 1.759-.204a1.114 1.114 0 0 1-.155-.475.821.821 0 0 1 .074-.44l.995-.115.017.032a.97.97 0 0 0-.245.432.79.79 0 0 0 .042.482l2.129-.246a3.942 3.942 0 0 1-.006-.137.71.71 0 0 1 .003-.14c.007-.226.119-.402.338-.524.217-.123.525-.207.922-.253a3.61 3.61 0 0 1 1.357.095l.04.01.04.012.039.012.038.012.038.013.036.013.037.013.035.013c.022.01.029.012.035.014l.034.015.034.014.033.015.032.015.015.008.017.008.014.008.017.008.014.008.015.009.014.008c.006.002.011.006.016.009l.014.008.015.009.014.008.014.01.014.008.014.01.013.008.013.01.014.008.013.01.013.01.012.008.014.01.01.009.015.011.024.02.023.02a1.315 1.315 0 0 1 .1.1c.014.014.021.023.028.031l1.34-.155.145.242-1.329.154Zm-2.903.077 2.038-.236-.016-.018a.538.538 0 0 0-.02-.022l-.002-.002a.548.548 0 0 0-.019-.018l-.002-.002-.02-.018-.002-.002a.398.398 0 0 0-.022-.018l-.025-.02a1.077 1.077 0 0 0-.026-.017l-.027-.018c-.009-.006-.018-.01-.027-.017l-.029-.016c-.012-.006-.021-.01-.03-.016l-.004-.001-.029-.014-.004-.002a.646.646 0 0 0-.03-.012l-.004-.002a.697.697 0 0 0-.067-.026l-.004-.001-.033-.012a1.881 1.881 0 0 0-.808-.061c-.293.033-.5.091-.62.172-.123.081-.18.215-.17.4l.002-.001Zm-.9.723c.107-.085.152-.21.133-.376l-2.043.236c.126.14.292.238.5.293.207.055.47.064.788.028.308-.037.516-.097.623-.181Z" fill="url(#l)"/></g><path d="M57.6 16.38c-.54.26-1.167.4-1.699.468-1.751.223-3.823-2.23-5.082-5.511-.633-1.648-.802-3.384-.398-5.126.148-.641.401-1.287.837-1.79.512-.59 1.035-.88 1.766-1.077.225-.06.45-.115.676-.17 1.747-.262 3.772 1.979 5.034 5.267.648 1.685.938 3.608.567 5.392-.137.66-.37 1.33-.795 1.864-.229.288-.548.511-.906.682Z" fill="url(#m)"/><path d="M59.122 8.335c1.359 3.537.698 7.249-1.128 7.95-1.826.702-4.127-1.873-5.486-5.41s-.64-7.002 1.187-7.703c1.826-.702 4.068 1.625 5.427 5.163Z" fill="url(#n)"/><path d="M56.449 15.168c-1.2-.685-2.286-2.103-3.127-4.445-1.204-3.355-.693-5.898.776-6.5.434-.177.92-.115 1.444.184 1.17.668 2.177 1.954 2.983 4.202.57 1.587.863 2.986.613 4.467-.222 1.32-.651 1.992-1.341 2.274-.398.162-.852.101-1.348-.182Z" fill="url(#o)"/><path d="M55.984 14.699c-.736-.417-1.228-1.156-1.65-1.868-.557-.94-.946-1.977-1.253-3.022a8.682 8.682 0 0 1-.362-2.848c.033-.766.18-1.955 1.04-2.225.519-.163.996.074 1.449.354 1.725 1.062 2.696 3.248 3.054 5.173.197 1.059.356 2.134.028 3.177-.239.761-.894 1.661-1.802 1.458a1.832 1.832 0 0 1-.504-.2v.001Z" fill="url(#p)"/><path d="m56.645 7.6.29-.822-.412.034-.289.823.411-.035Z" fill="url(#q)"/><path d="M56.104 12.535a.71.71 0 0 1-.331-.191c-.043-.041-.287-.408-.31-.406l-.353.03.143-.407a7.414 7.414 0 0 1-.188-.397l-.01-.022.355-.03.265-.754a3.218 3.218 0 0 1 .163.556c.034.176.043.362.014.54-.021.133-.095.415-.267.43.103-.01.25-.002.354-.01.183-.016.22-.132.28-.314.071-.215.07-.446.032-.668-.011-.063-.135-.649-.194-.649l-.352.03.164-.468c.013-.036-.06-.16-.074-.202l-.102-.285.357-.028.265-.756c.214.483.332 1.001.45 1.516l.411-.035c-.124-.54-.25-1.086-.481-1.59l-.352.031.118-.334a.193.193 0 0 0 .017-.084.188.188 0 0 0-.04-.084c-.068-.098-.143-.202-.255-.245-.158-.06-.334.019-.502.008.179.012.437.245.37.434l-.383 1.093c-.202-.59-.332-1.235-.158-1.834.052-.18.164-.43.38-.447l-.41.034c-.253.021-.356.33-.405.534-.094.392-.063.799.024 1.189.044.199.102.394.167.587.033.096.067.191.102.287.017.048.106.2.09.245l-.432 1.231a8.07 8.07 0 0 1-.41-1.184l.217-.61-.411.034-.216.61c-.018.053.06.216.075.264a8.714 8.714 0 0 0 .562 1.413l-.38 1.08.204.395.41-.035-.204-.394.216-.613c-.021.059.234.305.276.346.114.107.273.215.437.2l.41-.034a.393.393 0 0 1-.108-.006v-.001Z" fill="url(#r)"/><path d="M56.851 7.988c.106.214.21.457.31.726.101.27.178.503.233.7l-.21.6-.027-.053a9.894 9.894 0 0 0-.186-.783 5.054 5.054 0 0 0-.274-.752l-.458 1.302c.035.09.067.177.096.257l.074.209c.14.376.226.73.259 1.062.033.33.002.63-.093.902-.104.297-.26.421-.47.375-.209-.044-.423-.242-.642-.594l-.385 1.097-.204-.394.38-1.08a8.098 8.098 0 0 1-.362-.825 8.16 8.16 0 0 1-.274-.852l.215-.61.027.052a7.435 7.435 0 0 0 .551 1.786l.46-1.308a33.074 33.074 0 0 1-.186-.512c-.15-.43-.234-.802-.252-1.117a2.138 2.138 0 0 1 .102-.839c.1-.287.254-.41.461-.367l.02.004.019.006.019.006.019.008.02.008.018.01.02.01.02.01c.01.008.015.01.02.013l.019.013.02.014.02.015.02.016a.24.24 0 0 1 .019.017l.02.018.02.019a.354.354 0 0 1 .02.02l.02.02.02.022.02.023.02.023a.52.52 0 0 1 .042.05l.02.027a.9.9 0 0 1 .02.027l.009.012.012.016.009.013.011.016a.362.362 0 0 1 .01.013l.01.017.01.014.011.017.01.015.01.017.01.015.01.017a.059.059 0 0 1 .01.017c.008.01.014.022.021.033l.29-.822.203.393-.287.817.001-.001Zm-.799 1.301.44-1.253-.016-.026-.003-.004-.01-.016a.284.284 0 0 1-.01-.016l-.01-.016a.065.065 0 0 1-.01-.015.065.065 0 0 1-.01-.015l-.011-.015-.01-.013-.01-.014-.011-.012-.01-.014-.01-.011-.011-.013-.01-.01-.01-.012a.175.175 0 0 0-.01-.01l-.01-.01-.01-.01a.117.117 0 0 0-.011-.01l-.01-.008-.01-.009-.01-.007a.224.224 0 0 0-.011-.009l-.009-.006a1.208 1.208 0 0 0-.033-.02l-.007-.004a.203.203 0 0 0-.014-.007l-.006-.003a.193.193 0 0 0-.02-.008c-.108-.038-.195.034-.258.216a1.303 1.303 0 0 0-.067.569c.018.201.09.47.217.811h.001Zm.219 1.708a3.366 3.366 0 0 0-.212-.755l-.441 1.258c.13.21.244.325.341.346.098.02.182-.066.25-.262.067-.19.088-.385.062-.587Z" fill="url(#s)"/><mask id="t" style="mask-type:luminance" maskUnits="userSpaceOnUse" x="20" y="34" width="58" height="41"><path d="M70.864 62.147c-16.189-.036-32.84 3.918-48.512 11.827-1.033.494-1.71.053-1.589-1.055.84-7.972 1.69-15.926 2.551-23.861.143-1.275 1.306-2.898 2.543-3.5 16.181-7.918 33.27-11.722 49.75-11.37 1.15.025 1.917.9 1.752 1.969a8425.61 8425.61 0 0 0-3.732 23.779c-.186 1.224-1.48 2.246-2.763 2.212Z" fill="#fff"/></mask><g mask="url(#t)"><path d="M70.219 64.859c-15.965-.788-32.377 2.29-47.851 9.21-1.053.442-1.72-.045-1.596-1.187.83-7.9 1.67-15.782 2.52-23.646.154-1.372 1.41-3.12 2.747-3.769 16.15-7.867 33.196-11.64 49.633-11.279 1.249.029 2.078.98 1.894 2.133a7801.57 7801.57 0 0 0-4.239 26.16c-.213 1.364-1.698 2.481-3.108 2.377Z" fill="url(#u)"/><path d="M70.18 64.86c-15.954-.782-32.354 2.295-47.817 9.21-1.052.442-1.718-.046-1.595-1.187.83-7.9 1.67-15.783 2.522-23.647.153-1.372 1.41-3.12 2.745-3.768 16.138-7.862 33.172-11.637 49.6-11.28 1.247.027 2.076.978 1.892 2.132-1.422 8.679-2.835 17.4-4.24 26.162-.213 1.363-1.697 2.482-3.106 2.378Z" fill="url(#v)"/><path d="M70.288 64.856c-15.986-.799-32.422 2.28-47.919 9.21-1.054.444-1.722-.043-1.598-1.185.828-7.9 1.668-15.781 2.518-23.645.153-1.372 1.411-3.12 2.75-3.77 16.172-7.877 33.243-11.65 49.7-11.276 1.25.029 2.082.98 1.898 2.134A7899.037 7899.037 0 0 0 73.4 62.481c-.213 1.363-1.7 2.48-3.112 2.374Z" fill="url(#w)"/></g><mask id="x" style="mask-type:luminance" maskUnits="userSpaceOnUse" x="16" y="25" width="56" height="47"><path d="M68.806 55.47 19.332 71.487c-1.091.324-1.918-.225-1.934-1.286l-.458-22.93c-.02-1.227 1.041-2.659 2.31-3.119l49.874-18.077c1.161-.421 2.073.13 2.08 1.256l.06 24.99c.007 1.282-1.145 2.76-2.458 3.149Z" fill="#fff"/></mask><g mask="url(#x)"><path d="M68.58 58.366 19.364 71.584c-1.12.27-1.942-.323-1.96-1.416l-.46-22.725c-.022-1.32 1.124-2.862 2.496-3.359l49.752-18.033c1.26-.456 2.248.141 2.25 1.36l-.073 27.54c.001 1.429-1.332 3.063-2.787 3.415Z" fill="url(#y)"/><path d="M68.545 58.38 19.362 71.585c-1.12.27-1.94-.323-1.958-1.416l-.46-22.725c-.022-1.32 1.124-2.861 2.495-3.359l49.717-18.02c1.26-.457 2.246.141 2.248 1.36l-.073 27.541c.001 1.428-1.331 3.063-2.785 3.414Z" fill="url(#z)"/><path d="M68.658 58.34 19.372 71.582c-1.122.272-1.945-.322-1.963-1.415l-.463-22.724c-.021-1.32 1.127-2.862 2.5-3.36l49.82-18.058c1.262-.457 2.251.14 2.253 1.36l-.07 27.54c.001 1.427-1.334 3.062-2.79 3.415h-.001Z" fill="url(#A)"/></g><mask id="B" style="mask-type:luminance" maskUnits="userSpaceOnUse" x="14" y="24" width="55" height="46"><path d="M66.45 53.812 16.977 69.83c-1.09.324-1.917-.225-1.934-1.286l-.458-22.93c-.019-1.227 1.042-2.659 2.311-3.119L66.77 24.417c1.16-.421 2.073.13 2.08 1.256l.059 24.99c.008 1.282-1.145 2.76-2.457 3.149Z" fill="#fff"/></mask><g mask="url(#B)"><path d="M66.225 56.708 17.008 69.926c-1.12.27-1.942-.323-1.96-1.416l-.461-22.725c-.021-1.32 1.125-2.862 2.497-3.359l49.752-18.033c1.26-.456 2.247.141 2.249 1.36l-.073 27.54c.002 1.429-1.332 3.063-2.787 3.415Z" fill="url(#C)"/><path d="M66.187 56.722 17.004 69.927c-1.12.27-1.94-.324-1.958-1.417l-.46-22.724c-.021-1.32 1.124-2.862 2.495-3.359l49.718-18.02c1.258-.457 2.245.141 2.247 1.36l-.073 27.541c.001 1.428-1.331 3.062-2.785 3.414Z" fill="url(#D)"/><path d="M66.297 56.682 17.011 69.924c-1.121.271-1.945-.322-1.962-1.415l-.463-22.724c-.021-1.32 1.126-2.862 2.5-3.36l49.82-18.058c1.262-.457 2.25.14 2.253 1.359l-.07 27.54c0 1.428-1.334 3.063-2.791 3.415Z" fill="url(#E)"/></g><mask id="F" style="mask-type:luminance" maskUnits="userSpaceOnUse" x="12" y="22" width="55" height="47"><path d="M64.103 52.157 14.629 68.174c-1.091.324-1.918-.226-1.934-1.287l-.458-22.93c-.02-1.227 1.041-2.658 2.311-3.119l49.873-18.077c1.161-.42 2.074.13 2.081 1.257l.058 24.99c.008 1.281-1.144 2.758-2.457 3.148Z" fill="#fff"/></mask><g mask="url(#F)"><path d="M63.878 55.052 14.66 68.27c-1.12.27-1.942-.323-1.959-1.416l-.462-22.725c-.02-1.32 1.125-2.862 2.497-3.359l49.752-18.033c1.26-.456 2.248.14 2.25 1.36l-.073 27.54c.001 1.429-1.332 3.063-2.787 3.415Z" fill="url(#G)"/><path d="M63.841 55.065 14.658 68.27c-1.12.27-1.94-.323-1.958-1.416l-.46-22.725c-.022-1.32 1.124-2.862 2.495-3.359l49.717-18.02c1.26-.457 2.246.141 2.248 1.36l-.074 27.541c.002 1.428-1.33 3.063-2.784 3.414Z" fill="url(#H)"/><path d="M63.951 55.026 14.665 68.268c-1.121.271-1.945-.322-1.962-1.415l-.464-22.724c-.02-1.32 1.127-2.862 2.5-3.36L64.56 22.71c1.261-.457 2.25.14 2.252 1.36l-.07 27.539c.002 1.428-1.334 3.063-2.79 3.416Z" fill="url(#I)"/></g><path style="mix-blend-mode:multiply" d="M77.806 33.5a26.973 26.973 0 0 0-1.056-3.019c-2.519-6.02-9.376-9.184-15.622-9.813-2.614-.263-5.722-.246-8.192.755-3.479 1.408-7.279 2.105-10.873 3.168-5.666 1.675-11.259 3.593-16.815 5.598-5.527 1.993-11.527 4.588-13.964 9.934-1.908 4.184-1.1 8.865-.812 13.279.264 4.047-.214 7.797.266 11.807.04.344.184.61.4.785.364.319.938.388 1.597.153l.015.74c.006.397.125.722.328.957.34.424.923.597 1.623.426l.374-.101.008.375c.006.398.125.723.328.958.34.423.923.596 1.623.426l.374-.101.008.375c.006.397.125.723.328.958.34.423.923.596 1.623.426l1.582-.428-.185 1.762c-.045.413.02.733.174.947.253.392.782.533 1.419.205 7.803-4.023 16.187-7.068 24.736-9.057a90.57 90.57 0 0 1 10.768-1.816c2.819-.305 5.657-.336 8.488-.34 1.476-.003 2.982-.096 4.454-.018 1.11.058 1.959.201 2.75-.804.465-.59.71-1.32.943-2.034 2.761-8.435 5.856-17.56 3.31-26.502V33.5Z" fill="url(#J)"/><mask id="K" style="mask-type:luminance" maskUnits="userSpaceOnUse" x="8" y="17" width="56" height="50"><path d="M60.917 47.85c-16.09 7.895-32.804 11.48-48.261 18.217-1.026.418-1.867.061-1.978-.857a8646.172 8646.172 0 0 1-2.487-20.02c-.128-1.087.76-2.38 1.945-2.809 15.526-5.724 32.431-10.878 48.796-24.698 1.143-.973 2.107-.887 2.203.265.671 8.501 1.336 17.212 1.995 26.15.106 1.382-.93 3.165-2.213 3.752Z" fill="#fff"/></mask><g mask="url(#K)"><path d="M60.916 50.924c-16.063 6.338-32.762 9.302-48.222 15.222-1.058.377-1.9-.02-2.013-.965a8632.131 8632.131 0 0 1-2.473-19.838c-.138-1.17.821-2.562 2.104-3.026 15.498-5.708 32.361-10.88 48.685-24.69 1.24-1.057 2.284-.967 2.38.288.694 9.416 1.38 19.075 2.058 28.999.11 1.554-1.091 3.496-2.519 4.01Z" fill="url(#L)"/><path d="M60.885 50.94c-16.052 6.328-32.74 9.292-48.188 15.207-1.058.376-1.899-.021-2.013-.966a8654.224 8654.224 0 0 1-2.471-19.838c-.139-1.17.82-2.562 2.102-3.025 15.487-5.704 32.338-10.872 48.651-24.661 1.24-1.056 2.283-.965 2.38.29.692 9.413 1.378 19.068 2.056 28.988.11 1.553-1.09 3.494-2.517 4.007v-.001Z" fill="url(#M)"/><path d="M60.99 50.888c-16.084 6.361-32.808 9.326-48.29 15.256-1.06.377-1.901-.019-2.016-.964A8340.673 8340.673 0 0 1 8.21 45.343c-.138-1.17.822-2.562 2.106-3.027 15.52-5.716 32.41-10.893 48.754-24.75 1.242-1.06 2.286-.972 2.383.284.694 9.423 1.38 19.089 2.058 29.021.111 1.555-1.092 3.501-2.521 4.017Z" fill="url(#N)"/></g><path d="M57.635 31.16c-.033-.461-.395-.605-.857-.345-3.041 1.695-5.62.954-6.234-1.552-.092-.38-.498-.44-.959-.155-10.4 6.418-20.872 10.366-30.931 14.105-.53.196-.968.715-.996 1.199-.13 2.3-1.969 4.843-4.4 6.174-.497.271-.83.832-.789 1.286l.564 4.958c.038.419.39.63.852.521 2.131-.498 4.005.207 4.572 1.866.12.353.51.49.968.33 10.097-3.761 20.596-6.884 31.006-11.33.524-.213.952-.806.983-1.332.183-3.111 2.624-6.68 5.735-8.839.52-.355.905-1.062.861-1.581-.125-1.776-.25-3.545-.376-5.306ZM25.07 49.038c-.046 1.76-1.192 3.941-2.954 4.628-1.762.69-3.472-.38-3.43-2.152.04-1.772 1.461-3.74 3.228-4.415 1.766-.676 3.203.179 3.156 1.94v-.001Zm14.534-5.658c-.105 3.438-2.116 6.77-5.084 7.922-2.968 1.157-5.767-.183-5.676-3.47.09-3.292 2.35-6.391 5.329-7.676 2.98-1.29 5.537-.22 5.43 3.224Zm11.83-5.318c-.075 2.351-1.448 5.166-3.507 6.152-2.058.987-4.028-.101-3.96-2.29.068-2.196 1.495-4.447 3.56-5.576 2.066-1.13 3.98-.641 3.906 1.714Z" fill="#BBE4A7"/><path opacity=".53" d="M23.744 46.95c.599.341.965 1.008.94 1.91-.047 1.76-1.192 3.94-2.951 4.628a2.834 2.834 0 0 1-1.638.152c.625.33 1.43.389 2.25.07 1.764-.688 2.908-2.868 2.955-4.63.03-1.179-.602-1.95-1.556-2.13Zm13.7-7.219c1.121.484 1.824 1.657 1.767 3.483-.105 3.43-2.113 6.756-5.082 7.91-1.109.435-2.196.516-3.116.276 1.031.48 2.368.483 3.74-.056 2.968-1.152 4.98-4.49 5.083-7.93.066-2.157-.914-3.397-2.392-3.684v.001Zm11.748-10.746C38.788 35.372 28.322 39.3 18.271 43.024c-.53.197-.968.717-.995 1.2-.13 2.302-1.966 4.845-4.395 6.176-.496.27-.83.831-.788 1.288l.565 4.965c.033.378.321.585.715.543a.637.637 0 0 1-.117-.327l-.563-4.954c-.04-.453.29-1.012.787-1.284 2.434-1.331 4.273-3.874 4.404-6.172.028-.483.467-1.003.997-1.199 10.065-3.745 20.538-7.708 30.937-14.15a1.5 1.5 0 0 1 .26-.13c-.157-.227-.502-.23-.886.005Zm.793 6.808c.673.297 1.093 1.002 1.056 2.12-.073 2.342-1.446 5.146-3.504 6.13-.71.343-1.41.436-2.02.321.726.355 1.675.354 2.643-.117 2.058-.987 3.433-3.811 3.507-6.167.044-1.44-.657-2.195-1.682-2.287Z" fill="#DFFFA8"/><path opacity=".21" d="M21.608 46.954c-1.766.674-3.186 2.642-3.227 4.416-.027 1.133.663 1.982 1.622 2.263-.607-.409-.993-1.102-.973-1.956.042-1.772 1.464-3.737 3.233-4.414.64-.245 1.235-.288 1.736-.163-.581-.429-1.438-.511-2.391-.146Zm12.251-6.93c-2.978 1.28-5.237 4.377-5.327 7.67-.053 1.934.894 3.187 2.287 3.661-1.02-.614-1.668-1.75-1.623-3.362.089-3.294 2.35-6.396 5.332-7.687 1.212-.523 2.358-.662 3.277-.402-1.004-.579-2.42-.534-3.946.12Zm13.355-3.792c-2.065 1.126-3.491 3.371-3.559 5.563-.043 1.358.695 2.277 1.75 2.558-.684-.439-1.115-1.228-1.083-2.28.068-2.202 1.494-4.46 3.559-5.592.863-.471 1.703-.664 2.38-.553-.735-.459-1.869-.334-3.047.304Zm10.77-4.959c-.03-.41-.184-1.183-1.136-.691.28-.007.465.081.476.476.126 1.755.252 3.517.377 5.287.044.52-.343 1.225-.862 1.577-3.112 2.155-5.553 5.715-5.736 8.815-.032.526-.461 1.118-.984 1.33-10.413 4.444-20.909 7.57-30.998 11.34-.303.11-.73.047-.845-.115.165.566.496.788 1.493.413 10.106-3.753 20.607-6.872 31.015-11.32.523-.214.95-.807.981-1.334.184-3.12 2.624-6.7 5.733-8.865.519-.355.905-1.065.862-1.585-.125-1.784-.25-3.56-.376-5.328Z" fill="#3D9C6C"/><path d="M54.851 63.242c-2.284-.612-10.703-3.39-11.867-5.867-.443-.943-.613-2.02-.775-3.083-.31-2.032-.562-4.074-.82-6.113-.376-2.975-.7-5.957-1.059-8.934a9.306 9.306 0 0 0-.033-.292c-.166-1.419-.32-2.839-.48-4.258-.083-.731-.168-1.462-.258-2.192-.069-.558-.321-1.315-.005-1.833.143-.234.404-.238.64-.327.392-.148.79-.272 1.184-.414.04-.014.083-.033.098-.073.022-.057-.027-.115-.073-.156-.406-.37-.727-.678-1.276-.822-.515-.133-1.001-.054-1.506.077a88.616 88.616 0 0 0-9.496 3.556c-.609.27-1.223.55-1.739.98-1.547 1.288-1.103 3.213-.962 5.005.197 2.478.632 4.925.916 7.392.505 4.39.815 8.71 1.63 13.015.22 1.161.522 2.052 1.218 2.933 1.136 1.43 8.881 4.706 10.549 5.103 2.323.551 4.54.315 6.914-.431 1.765-.475 3.517-1.096 5.272-1.638.541-.17 1.087-.358 1.571-.664.221-.14.495-.322.642-.55.148-.23-.096-.363-.285-.414Z" fill="url(#O)"/><path d="M54.85 63.242c-2.284-.612-10.703-3.39-11.867-5.867-.443-.943-.612-2.02-.774-3.083-.31-2.032-.562-4.074-.821-6.113-.375-2.976-.699-5.957-1.058-8.934a9.37 9.37 0 0 0-.033-.293c-.166-1.418-.32-2.838-.48-4.258-.084-.73-.169-1.461-.258-2.192-.065-.524-.292-1.225-.055-1.737-.191.053-.38.095-.494.28-.316.518-.063 1.276.005 1.833.09.73.174 1.461.258 2.192.16 1.42.314 2.84.48 4.258.013.097.023.195.033.292.36 2.977.683 5.96 1.058 8.935.26 2.039.512 4.08.821 6.113.162 1.063.331 2.14.774 3.083 1.164 2.476 9.584 5.254 11.868 5.867.189.05.433.183.285.413a1.21 1.21 0 0 1-.222.248c.042-.024.084-.048.124-.074.22-.14.495-.322.641-.55.148-.23-.096-.363-.285-.413Z" fill="#A23037"/><path opacity=".61" d="M36.324 41.296c-.026-.055-.072-.087-.161-.11a6.436 6.436 0 0 0-1.057-.162c-.074-.006-.693.01-.706-.048-.098-.421-.093-.885-.135-1.315a.23.23 0 0 0-.026-.102c-.026-.042-.077-.063-.125-.078a1.265 1.265 0 0 0-.55-.043h-.002c-.314.044-.627.133-.937.2-.118.025-.124.069-.113.173l.133 1.323v.015l.018.17a.036.036 0 0 1-.007.002l-.017.006c-.62.196-1.148.652-1.5 1.189a2.422 2.422 0 0 0-.413 1.395v.008c.013.83.428 1.539 1.227 1.842.2.076.41.125.622.157.048.008.553.046.554.056l.222 2.214.002.023c.002.022-.567-.092-.616-.107-.205-.062-.385-.158-.58-.244-.181-.08-.412-.091-.609-.076-.075.006-.476.042-.465.146l.074.737c.018.176-.005.428.062.59v.003c.046.102.27.124.367.15a5.6 5.6 0 0 0 1.834.177c.023 0 .046-.002.07-.004.046.152.035.346.051.504l.053.524.052.524c.012.12-.006.327.088.416.1.094.26.104.39.101.411-.008.813-.114 1.211-.22.172-.045.083-.26.07-.392l-.062-.607-.121-1.214.028-.01c.956-.336 1.66-1.237 1.854-2.2.128-.63-.05-1.382-.522-1.837-.398-.384-.956-.555-1.501-.598a3.803 3.803 0 0 0-.2-.01c-.101-.003-.116.013-.136-.089-.033-.17-.035-.352-.053-.524l-.106-1.05c-.005-.05-.032-.542-.053-.545.232.036.46.127.674.22.317.139.665.216 1.01.133.125-.03.236-.04.255-.186.015-.115-.03-.23-.04-.345a11.553 11.553 0 0 0-.08-.745.429.429 0 0 0-.03-.138l.002.001Z" fill="#A23037"/><path d="M36.03 41.172c-.026-.055-.072-.088-.161-.11a6.382 6.382 0 0 0-1.057-.162c-.074-.006-.693.01-.706-.048-.098-.421-.093-.886-.135-1.315a.23.23 0 0 0-.026-.102c-.026-.042-.077-.063-.125-.078a1.267 1.267 0 0 0-.55-.043h-.002c-.314.044-.627.133-.937.2-.118.025-.124.069-.113.173l.132 1.323.002.015.017.17a.038.038 0 0 1-.007.002l-.017.005c-.62.197-1.148.652-1.5 1.19a2.422 2.422 0 0 0-.413 1.395v.008c.013.83.428 1.538 1.227 1.842.2.076.41.125.622.157.048.008.553.046.554.056l.222 2.214.002.023c.002.022-.567-.093-.616-.107-.205-.062-.385-.158-.58-.244-.181-.08-.412-.091-.61-.076-.074.006-.475.042-.464.146l.074.738c.018.175-.005.427.062.59v.002c.046.102.27.124.366.15.194.053.39.094.59.124.41.063.83.078 1.245.053l.07-.003c.046.152.035.345.05.503l.053.524.053.524c.012.12-.006.327.088.416.1.094.26.105.39.102.411-.01.813-.115 1.21-.22.172-.046.084-.26.07-.393l-.06-.606c-.042-.405-.082-.81-.122-1.215l.028-.01c.956-.335 1.66-1.237 1.854-2.2.128-.63-.05-1.381-.522-1.837-.398-.384-.956-.555-1.501-.598a3.693 3.693 0 0 0-.2-.01c-.101-.003-.116.013-.136-.088-.033-.17-.035-.353-.053-.525l-.106-1.05c-.005-.049-.033-.542-.053-.545.232.037.46.127.674.22.317.14.665.217 1.009.134.126-.03.237-.042.256-.186.014-.115-.03-.231-.04-.345a11.545 11.545 0 0 0-.08-.746.429.429 0 0 0-.03-.137h.002Z" fill="url(#P)"/><path d="M35.28 45.04c.298.258.474.656.528 1.192.06.588-.092 1.136-.453 1.645a2.95 2.95 0 0 1-1.448 1.09l.218 2.172-.613.132-.215-2.142a5.17 5.17 0 0 1-1.184.103 3.872 3.872 0 0 1-1.063-.162c-.04-.404-.08-.809-.122-1.212l.08-.018a3.28 3.28 0 0 0 1.016.369c.37.071.764.082 1.184.031l-.26-2.592-.337-.016a3.705 3.705 0 0 1-.338-.028c-.554-.047-.964-.212-1.228-.494-.264-.282-.42-.665-.47-1.15-.056-.567.094-1.104.449-1.61.356-.507.85-.863 1.486-1.07l-.164-1.632.613-.133.162 1.62c.328-.058.67-.08 1.029-.066.358.015.887.111.887.111l.12 1.188-.081.018a4.184 4.184 0 0 0-.876-.326c-.314-.079-.992-.055-.992-.055l.259 2.58a13.753 13.753 0 0 0 .613.033c.5.022.9.163 1.198.421l.002.001Zm-2.434-.411-.25-2.484a1.58 1.58 0 0 0-.776.526c-.198.25-.28.554-.243.915.036.356.143.613.322.773.179.16.495.249.947.27Zm1.767 2.918c.169-.238.234-.552.195-.94-.038-.376-.152-.636-.342-.778-.19-.143-.489-.217-.896-.223l.25 2.49c.361-.127.625-.31.794-.549Z" fill="url(#Q)"/><path d="M41.316 11.43c-2.618 1.62-5.757.504-7.663-1.88-.865-1.083-1.41-2.456-1.3-3.856a4.418 4.418 0 0 1 .407-1.542c.235-.498.294-.803.634-1.232.347-.436.909-.974 1.428-1.212.299-.137.613-.24.934-.31a5.257 5.257 0 0 1 1.95-.036c1.351.22 2.617.884 3.645 1.777.363.316.7.663 1 1.04 1.149 1.436 1.88 2.813 1.397 4.33-.32 1.003-1.39 2.277-2.432 2.921Z" fill="url(#R)"/><path d="M41.953 10.442c-2.617 1.62-5.757.503-7.663-1.881-1.906-2.385-1.817-5.502.8-7.122 2.618-1.62 5.993-.633 7.9 1.751 1.905 2.384 1.58 5.632-1.037 7.252Z" fill="url(#S)"/><path d="M35.108 7.725c-.833-1.042-1.202-2.243-1.013-3.296.156-.868.667-1.577 1.52-2.107 2.269-1.41 5.016-.309 6.448 1.442l.038.048c.768.96 1.098 2.123.906 3.19-.174.971-.75 1.786-1.665 2.354-2.233 1.388-4.773.157-6.187-1.573l-.047-.058Z" fill="url(#T)"/><path d="M35.372 7.629c-.79-.988-1.146-2.113-.978-3.087.135-.781.597-1.42 1.371-1.9 2.129-1.317 4.736-.244 6.108 1.435l.04.048c.722.904 1.039 1.99.868 2.977-.153.888-.678 1.632-1.518 2.152-2.082 1.289-4.489.091-5.844-1.566l-.047-.059Z" fill="url(#U)"/><path d="m40.968 5.08.015.19.788-.32-.017-.187-.786.317Z" fill="url(#V)"/><path d="M38.908 4.966c.1-.192.383-.278.608-.253.156.018.309.078.445.163.05.032.308.194.311.25l-.013-.194-.022-.022a.559.559 0 0 1-.02-.019c-.21-.203-.495-.374-.788-.382-.218-.006-.43.092-.527.265-.061.109-.036.238-.03.365a.346.346 0 0 1 .036-.173Z" fill="url(#W)"/><path d="m38.443 5.667.104.198-.009-.202-.103-.2a3.4 3.4 0 0 1-.097-.203 1.82 1.82 0 0 1-.152-.453.965.965 0 0 1-.014-.129l.008.205c.007.163.062.357.167.58.024.058.056.124.096.204Z" fill="url(#X)"/><path d="M40.991 6.34a2.452 2.452 0 0 0-.134-.53 1.83 1.83 0 0 0-.13-.276 2.39 2.39 0 0 0-.185-.28l-1.27.541.012.2 1.272-.547c.143.185.248.37.316.554.068.184.112.36.134.53l.038.04.588-.256-.016-.188-.588.253-.037-.041Z" fill="url(#Y)"/><path d="m38.959 6.714-.01-.201a.964.964 0 0 0-.106-.35 2.218 2.218 0 0 0-.077-.146l-1.246.563.007.208 1.25-.57c.115.204.176.37.182.496Z" fill="url(#Z)"/><path d="m36.801 6.658-.005-.212a4.318 4.318 0 0 1-.432-.703 3.356 3.356 0 0 1-.208-.524 2.185 2.185 0 0 1-.04-.16l.003.215c.045.206.127.433.248.682.123.247.267.48.434.701Z" fill="url(#aa)"/><path d="M39.594 7.025c-.094.193-.287.341-.517.417-.356.119-.77.068-1.128-.07a2.376 2.376 0 0 1-.457-.24c-.042-.029-.41-.35-.413-.348l-1.102.524-.266-.352.002.216.266.35 1.105-.528c.004-.002.354.304.394.332.142.096.294.179.455.243.356.14.773.195 1.132.081.35-.11.621-.382.6-.728l-.011-.197a.601.601 0 0 1-.06.301Z" fill="url(#ab)"/><path d="M40.966 5.08a4.417 4.417 0 0 1 .648 1.049l-.587.252-.037-.04a2.458 2.458 0 0 0-.135-.53 2.101 2.101 0 0 0-.315-.556l-1.27.54c.04.07.075.135.107.196.032.06.058.113.083.158.16.286.22.533.183.744-.035.211-.187.38-.458.505-.297.14-.646.153-1.043.04a2.454 2.454 0 0 1-1.065-.655l-1.102.524-.266-.352 1.086-.509a4.318 4.318 0 0 1-.433-.703 3.07 3.07 0 0 1-.248-.683l.603-.263.034.047c.004.215.047.441.126.678.08.236.201.475.364.719l1.294-.578-.104-.198a3.4 3.4 0 0 1-.096-.204c-.156-.335-.202-.603-.141-.801.061-.198.21-.345.444-.44.366-.151.775-.07 1.123.087.187.084.363.192.527.314.04.03.369.348.39.34l.79-.314.283.316-.786.317h.001Zm-1.926.365 1.22-.513c-.272-.276-.7-.54-1.096-.377-.174.072-.272.172-.297.298-.025.13.033.327.173.592Zm-.094 1.124c.013-.132-.048-.316-.181-.552l-1.246.563c.186.191.372.314.555.37a.783.783 0 0 0 .57-.052c.19-.087.29-.196.302-.33Z" fill="url(#ac)"/><mask id="ad" style="mask-type:luminance" maskUnits="userSpaceOnUse" x="67" y="64" width="19" height="11"><path d="M85.052 68.267c.228-.834-.29-1.672-1.572-2.346-2.747-1.442-7.854-1.832-11.993-.538-2.348.734-3.482 1.724-3.523 2.707a.079.079 0 0 1-.004.01l-.016.043c-.02.063-.033.12-.042.176l-.006.048a.987.987 0 0 0-.007.117c0 .009-.002.017-.001.026.005.215.064 1.89.077 2.175.03.712.632 1.413 1.76 2.006 2.748 1.442 7.484 1.938 11.623.645 2.6-.813 3.857-1.982 3.753-3.097-.025-.266-.043-1.408-.05-1.97v-.002Z" fill="#fff"/></mask><g mask="url(#ad)"><path d="M76.895 79.011a9.671 9.671 0 0 0 0-19.343 9.672 9.672 0 0 0-9.672 9.672c0 5.341 4.33 9.671 9.672 9.671Z" fill="url(#ae)"/><path d="M81.347 70.856c-4.14 1.294-8.875.798-11.623-.645-2.747-1.442-2.378-3.535 1.761-4.829 4.14-1.293 9.247-.904 11.994.54 2.747 1.442 2.007 3.64-2.132 4.934Z" fill="url(#af)"/><path d="M71.264 69.365c-1.205-.637-1.704-1.407-1.371-2.115.274-.583 1.076-1.083 2.383-1.486 3.48-1.072 7.562-.515 9.636.553l.056.03c1.11.587 1.553 1.334 1.216 2.05-.307.653-1.211 1.227-2.615 1.66-3.424 1.055-7.188.4-9.237-.656l-.068-.035Z" fill="url(#ag)"/><path d="M71.451 69.501c-1.138-.597-1.601-1.322-1.27-1.986.266-.534 1.021-.999 2.246-1.381 3.366-1.052 7.288-.543 9.27.47l.056.03c1.041.546 1.446 1.247 1.11 1.921-.302.607-1.163 1.147-2.49 1.562-3.292 1.029-6.897.42-8.854-.58l-.068-.035Z" fill="url(#ah)"/><path d="M76.25 67.34v-.004l.015.353-2.02.233.02.518 2.083-.24.004.048-.02-.517a.466.466 0 0 0-.004-.05l-.062.008-.01-.263c-.002-.017-.002-.039-.003-.059l-.003-.08-.002-.025.003.077Z" fill="url(#ai)"/><path d="M74.04 67.907c-.007-.241.11-.472.272-.644l-.02-.518c-.162.172-.28.404-.271.644.007.173.014.346.019.518Z" fill="url(#aj)"/><path d="M77.204 68.243a1.63 1.63 0 0 1 0-.142l2.156-.25c.027.07.042.138.045.205l-.021-.517a.626.626 0 0 0-.045-.205l-.143.016-.01-.262-.016-.018c-.185-.207-.493-.303-.76-.332a2.494 2.494 0 0 0-.796.06.914.914 0 0 0-.33.122c-.135.093-.183.239-.177.396l.021.518a.65.65 0 0 1 .006-.12l.005-.023c.033-.168.165-.275.322-.33.148-.052.316-.08.472-.098.073-.008.144-.013.214-.016h.007a1.705 1.705 0 0 1 .75.138l-1.724.199c.006 0 .006.305.003.336a.569.569 0 0 1-.134.316c-.15.173-.376.255-.592.312a3.86 3.86 0 0 1-.89.122 3.542 3.542 0 0 1-1.085-.135c-.346-.102-.718-.257-.965-.528l-.163.019-.01-.262a1.138 1.138 0 0 1-.158-.484l-.004-.052.02.518.004.051c.007.082.023.162.048.24l-1.555.18-.15-.245.021.517.15.246 1.817-.21c.018-.002.123.118.145.136.057.045.118.087.18.124.163.102.34.174.521.234.389.125.8.18 1.207.169.242-.007.484-.031.721-.085.229-.051.493-.121.677-.272a.588.588 0 0 0 .22-.372l-.004-.215v-.001Z" fill="url(#ak)"/><path d="m80.186 67.756 1.256-.145-.021-.518-1.355.157.02.517.096-.01c0 .047 0 .094-.005.136a.698.698 0 0 1-.035.153l-.995.114-.018-.032.02.518.019.032.995-.115a.698.698 0 0 0 .035-.151v-.002c.007-.057.01-.12.007-.188l-.019-.465Z" fill="url(#al)"/><path d="M80.068 67.251c.069.132.108.273.117.422a.936.936 0 0 1-.041.374l-.995.115-.019-.033c.1-.12.174-.246.223-.38a.578.578 0 0 0-.013-.414l-2.16.25a.87.87 0 0 1 .008.141c0 .043 0 .082.002.114.011.209-.084.382-.284.52-.2.138-.525.233-.973.285a3.734 3.734 0 0 1-1.414-.097c-.45-.121-.785-.302-1.003-.54l-1.818.21-.148-.246 1.793-.207a1.139 1.139 0 0 1-.157-.485.839.839 0 0 1 .074-.449l1.014-.116.019.032a.99.99 0 0 0-.251.44.808.808 0 0 0 .044.492l2.169-.25a5.126 5.126 0 0 1-.006-.14.733.733 0 0 1 .002-.142c.008-.232.122-.41.345-.536.222-.125.535-.211.94-.258a3.682 3.682 0 0 1 1.465.12l.04.012.038.012.039.013.038.013c.022.008.03.01.036.014l.037.013a.932.932 0 0 1 .035.015c.022.01.029.012.035.014l.035.015.033.016.033.015.015.008.017.008.015.008.017.009a1.026 1.026 0 0 0 .062.033l.014.009.015.009.014.008.015.01.014.008a.24.24 0 0 1 .015.01l.013.009.014.01.013.01.013.008.014.01.012.01.014.01.01.008.015.012.025.02.024.02c.032.03.058.055.083.081l.019.02.028.033 1.366-.158.147.246-1.354.157Zm-2.96.079 2.078-.24a.48.48 0 0 0-.036-.04l-.002-.002a.342.342 0 0 0-.019-.02l-.002-.001a.954.954 0 0 0-.021-.019l-.002-.002a.471.471 0 0 0-.022-.018l-.025-.02a1.128 1.128 0 0 0-.083-.053c-.01-.007-.02-.011-.03-.017l-.03-.016-.004-.002-.029-.013-.004-.002-.03-.013-.004-.002-.031-.012-.005-.002-.032-.012-.004-.002a12.924 12.924 0 0 0-.035-.012l-.04-.012a1.925 1.925 0 0 0-.783-.05c-.299.034-.509.093-.632.175-.125.083-.182.22-.172.407Zm-.916.737c.109-.087.154-.215.135-.383l-2.082.24c.128.143.297.242.509.299.212.056.478.066.804.028.314-.037.525-.098.634-.184Z" fill="url(#am)"/></g><path d="M19.889 20.191c2.836 3.49 2.008 8.01-.851 10.939-1.297 1.33-3.07 2.242-5.029 2.241a6.4 6.4 0 0 1-2.224-.403c-.74-.274-1.176-.322-1.847-.753-.68-.438-1.553-1.166-2-1.867a7.086 7.086 0 0 1-.641-1.275 7.69 7.69 0 0 1-.495-2.728c-.005-1.915.625-3.762 1.623-5.298a9.858 9.858 0 0 1 1.208-1.515c1.722-1.765 3.458-2.94 5.666-2.428 1.458.338 3.462 1.7 4.59 3.087Z" fill="url(#an)"/><path d="M19.734 22.75c.709 4.555-1.942 8.254-5.502 9.515-3.561 1.262-7.088-.657-7.797-5.212-.71-4.555 1.895-8.654 5.456-9.915 3.56-1.262 7.134 1.058 7.843 5.613Z" fill="url(#ao)"/><path d="M13.327 30.293c-1.57.55-3.108.39-4.221-.438-.919-.683-1.493-1.756-1.707-3.19-.57-3.817 1.942-6.906 4.594-7.874l.072-.026c1.447-.507 2.923-.316 4.051.523 1.029.764 1.693 1.982 1.923 3.522.56 3.755-2.004 6.495-4.624 7.451l-.088.032Z" fill="url(#ap)"/><path d="M13.552 30.227c-1.476.523-2.918.367-3.958-.427-.835-.637-1.365-1.643-1.575-2.991-.577-3.704 1.79-6.691 4.311-7.621l.073-.026c1.35-.479 2.729-.291 3.784.515.95.724 1.571 1.879 1.799 3.34.564 3.622-1.859 6.26-4.347 7.179l-.087.031Z" fill="url(#aq)"/><path d="m14.08 20.425-.291-.19-.177 1.251.292.19.176-1.25Z" fill="url(#ar)"/><path d="M11.785 23.475c.008.351.267.481.53.652a.501.501 0 0 1-.098-.08c-.25-.274-.143-.773.044-1.049.205-.302.555-.492.904-.574l.053-.01.035-.008c-.12-.078-.225-.184-.363-.174-.29.023-.616.208-.806.423a1.21 1.21 0 0 0-.3.82Z" fill="url(#as)"/><path d="M12.299 25.027c.078.016.173.033.286.047l.158.02.13.017-.29-.19-.29-.037a3.76 3.76 0 0 1-.286-.047c-.306-.05-.549-.135-.73-.252l.292.19c.18.118.423.202.73.252Z" fill="url(#at)"/><path d="m15.261 21.664-.13.916-.072.008a3.446 3.446 0 0 0-.695-.314 2.503 2.503 0 0 0-.847-.116l-.278 1.99.291.19.279-1.99c.31-.007.59.031.846.116.256.084.488.19.696.314l.072-.008.13-.916-.292-.19Z" fill="url(#au)"/><path d="m12.5 27.797-.291-.19c-.352.032-.7.03-1.046-.008a3.494 3.494 0 0 1-.888-.204l.292.19c.247.097.543.165.887.203a5.134 5.134 0 0 0 1.046.01Z" fill="url(#av)"/><path d="m12.863 26.858.291.19.268-1.923c.3.03.521.092.664.186l-.29-.19c-.144-.094-.366-.155-.665-.186l-.268 1.923Z" fill="url(#aw)"/><path d="M15.24 25.332c-.068-.408-.386-.639-.707-.854.296.158.43.52.43.857.002.518-.255 1.015-.625 1.378-.41.4-.958.675-1.513.803l-.057.014-.235 1.676-.556.055.291.19.556-.055.236-1.676a3.27 3.27 0 0 0 1.518-.766c.396-.366.674-.88.677-1.42a1.23 1.23 0 0 0-.015-.2v-.002Z" fill="url(#ax)"/><path d="M13.61 21.486a4.76 4.76 0 0 1 .905.027c.307.036.555.087.746.15l-.13.917-.072.008a3.444 3.444 0 0 0-.695-.315 2.502 2.502 0 0 0-.847-.116l-.278 1.99c.103.013.201.025.29.038.09.015.166.026.233.034.428.055.746.193.955.412.207.22.284.536.225.95-.064.454-.302.86-.713 1.223a3.16 3.16 0 0 1-1.465.724l-.235 1.677-.556.055.232-1.653c-.35.032-.7.03-1.045-.01a3.494 3.494 0 0 1-.888-.203l.131-.935.074-.008c.23.157.499.276.806.357.306.083.646.12 1.018.114l.28-2-.288-.038a3.756 3.756 0 0 1-.286-.046c-.47-.078-.792-.236-.966-.47-.174-.235-.234-.54-.183-.913.114-.82.839-1.437 1.57-1.727.18-.071.364-.123.552-.162l.073-.015.177-1.26.557-.056-.177 1.25v.001Zm-.918 2.649.27-1.918a.637.637 0 0 0-.036.007c-.528.108-1.05.449-1.129 1.019-.037.274.004.48.128.614.124.136.38.227.768.278Zm1.168 1.038c-.136-.124-.38-.202-.732-.237l-.268 1.922c.337-.07.6-.191.793-.36.192-.17.31-.405.35-.704.041-.29-.006-.498-.143-.621Z" fill="url(#ay)"/><path d="M45.84 32.778c-.468.679-1.122 1.276-1.711 1.72-1.942 1.463-6.093-.055-9.84-3.118-1.881-1.538-3.268-3.498-3.974-5.855-.26-.868-.4-1.813-.222-2.712.209-1.056.636-1.759 1.375-2.493.228-.226.46-.445.693-.665 1.91-1.506 5.86-.21 9.614 2.859 1.925 1.573 3.584 3.674 4.36 6.06.286.881.465 1.844.322 2.77-.077.501-.306.986-.616 1.435v-.001Z" fill="url(#az)"/><path d="M45.84 32.777c-.469.679-1.122 1.276-1.712 1.72-1.941 1.463-6.093-.055-9.839-3.118-1.882-1.538-3.269-3.498-3.975-5.855-.26-.868-.4-1.813-.222-2.712.21-1.056.637-1.759 1.376-2.493.227-.226.46-.444.693-.665 1.91-1.506 5.86-.21 9.614 2.859 1.925 1.573 3.584 3.673 4.359 6.06.287.882.466 1.844.323 2.77-.077.501-.306.986-.617 1.435v-.001Z" fill="url(#aA)"/><path d="M42.166 22.122c4.04 3.301 5.785 8.189 4.08 10.275-1.704 2.085-6.212.578-10.251-2.722-4.04-3.301-5.545-7.934-3.842-10.02 1.705-2.085 5.973-.834 10.013 2.467Z" fill="url(#aB)"/><path d="M43.636 32.115c-1.902 0-4.169-.953-6.773-3.179-3.731-3.188-4.855-6.577-3.51-8.299.398-.509 1.02-.768 1.852-.768 1.855 0 3.936.851 6.435 2.987 1.766 1.509 3.07 2.982 3.783 4.922.635 1.729.581 2.826-.05 3.634-.365.467-.95.703-1.737.703Z" fill="url(#aC)"/><path d="M42.76 31.873c-1.166.004-2.259-.543-3.25-1.107-1.307-.743-2.48-1.716-3.56-2.757a11.984 11.984 0 0 1-2.377-3.156c-.483-.94-1.12-2.46-.275-3.37.508-.549 1.24-.591 1.973-.567 2.787.092 5.44 2.042 7.184 4.1.958 1.13 1.881 2.307 2.203 3.778.234 1.074.065 2.596-1.159 2.974a2.537 2.537 0 0 1-.739.105Z" fill="url(#aD)"/><path d="m36.277 24.083.792.754.757.72.231.22.422-.479-1.612-1.534c.186-.037.378-.037.567-.02.091.009.183.021.274.037.04.006.2.059.231.042l.038-.024.389-.445-.038.024-.01-.002c-.434-.091-.93-.162-1.347.033l-.217.248-.055-.053c-.15.149-.283.32-.423.478v.001Z" fill="url(#aE)"/><path d="m41.07 27.763-1.567-1.49c.187-.008.372.05.536.142.163.09.307.211.446.337.301.272.861.832.467 1.253l.39-.445a.544.544 0 0 0 .08-.57 1.496 1.496 0 0 0-.287-.427c-.211-.235-.464-.467-.746-.612a1.186 1.186 0 0 0-.836-.085l-.216.247-.126-.119c-.579.124-1.137.119-1.667-.168a4.066 4.066 0 0 1-1.05-.839 2.686 2.686 0 0 1-.546-.852c-.143-.38-.15-.798.132-1.12L34.91 21.9l-.39.445 1.17 1.113-.035.04-.008.008-.02.024a.857.857 0 0 0-.171.578c.029.601.427 1.13.849 1.53l.008.007c.337.318.72.606 1.16.764.453.165.886.129 1.348.03l1.859 1.768.389-.445Z" fill="url(#aF)"/><path d="m43.242 29.831-1.537-1.462a6.25 6.25 0 0 1-.241.13 2.385 2.385 0 0 1-1.13.186l-.87-.827-.388.445.868.827c.018.016.121.007.15.007a2.235 2.235 0 0 0 .557-.056c.232-.052.467-.134.665-.267l1.537 1.462.276-.19.389-.446-.276.191Z" fill="url(#aG)"/><path d="M36.348 22.816c.156-.094.345-.163.567-.21a2.64 2.64 0 0 1 .6-.064l.852.811-.037.025a4.03 4.03 0 0 0-.733-.089 1.39 1.39 0 0 0-.624.12l1.85 1.76c.073-.017.142-.032.21-.043.068-.012.126-.022.174-.032.311-.064.642-.029.988.104.347.132.713.382 1.097.748.421.4.693.808.813 1.22.12.414.073.743-.144.99l1.558 1.483-.276.19-1.537-1.462a1.886 1.886 0 0 1-.634.26 2.403 2.403 0 0 1-.738.056l-.868-.827.037-.024c.296.072.577.104.844.096.266-.01.508-.064.724-.166l-1.859-1.77a8.571 8.571 0 0 1-.21.043 1.862 1.862 0 0 1-.218.034 1.83 1.83 0 0 1-1.055-.15c-.342-.154-.686-.397-1.033-.728-.508-.484-1.27-1.51-.614-2.178l-1.17-1.114.276-.19 1.161 1.105v.002Zm2.133 2.482-1.78-1.694c-.37.365.068.907.341 1.167.256.244.489.406.699.489.212.083.459.096.74.038Zm1.751.58a1.19 1.19 0 0 0-.678-.012l1.784 1.698a.504.504 0 0 0 .11-.51c-.057-.193-.224-.422-.502-.687-.27-.257-.507-.42-.714-.489Z" fill="url(#aH)"/><path d="M75.279 68.066c-.894 4.7-5.471 7.122-10.204 6.8-2.147-.147-4.292-.965-5.78-2.56a6.88 6.88 0 0 1-1.338-2.087c-.323-.792-.612-1.18-.745-2.021-.135-.855-.162-2.063.111-2.907a7.14 7.14 0 0 1 .627-1.396 8.157 8.157 0 0 1 2.008-2.271c1.67-1.316 3.761-2.068 5.862-2.308a12.4 12.4 0 0 1 2.243-.054c2.85.194 5.195.803 6.425 2.952.812 1.419 1.146 3.984.79 5.853Z" fill="url(#aI)"/><path d="M75.28 68.066c-.895 4.7-5.472 7.122-10.204 6.8-2.147-.146-4.293-.965-5.78-2.56a6.88 6.88 0 0 1-1.338-2.087c-.323-.792-.612-1.18-.745-2.021-.136-.855-.162-2.063.111-2.907.157-.486.368-.955.626-1.396a8.154 8.154 0 0 1 2.008-2.271c1.67-1.316 3.762-2.068 5.863-2.308a12.39 12.39 0 0 1 2.242-.054c2.85.194 5.196.803 6.426 2.952.812 1.42 1.146 3.984.79 5.853Z" fill="url(#aJ)"/><path d="M74.816 66.298c-.894 4.7-6.566 6.885-10.204 6.799-4.732-.322-8.208-3.698-7.314-8.397.894-4.7 5.57-7.528 10.302-7.206 4.732.322 8.11 4.104 7.216 8.804Z" fill="url(#aK)"/><path d="M64.514 71.283c-2.068-.141-3.831-.98-4.838-2.303-.83-1.09-1.105-2.42-.817-3.952.77-4.081 4.915-6.07 8.425-5.87l.096.006c1.907.13 3.583.974 4.604 2.313.93 1.22 1.257 2.735.946 4.382-.756 4.014-4.833 5.63-8.3 5.432l-.116-.007Z" fill="url(#aL)"/><path d="M64.683 70.88c-1.96-.133-3.624-.907-4.562-2.122-.753-.975-1-2.175-.736-3.566.728-3.822 4.695-5.68 8.06-5.488l.096.005c1.794.122 3.37.9 4.321 2.133.856 1.109 1.157 2.491.87 4-.712 3.736-4.61 5.235-7.933 5.045l-.116-.007Z" fill="url(#aM)"/><path d="m68.469 61.035-.202-.387-.52 1.212.202.387.52-1.212Z" fill="url(#aN)"/><path d="M65.047 63.66a.476.476 0 0 0 .037.15l.013.028.202.386a.436.436 0 0 1-.042-.12.593.593 0 0 1-.008-.134l.002-.017a.772.772 0 0 1 .03-.158c.013-.049.03-.098.051-.15.026-.06.058-.113.092-.166.015-.022.032-.043.048-.064.032-.04.063-.08.1-.117l.01-.009c.05-.047.107-.091.17-.131l.008-.006a1.444 1.444 0 0 1 .317-.153l.006-.002.05-.018c.003 0 .005-.002.008-.003l.05-.016.008-.002a2.35 2.35 0 0 1 .06-.018l.05-.014.009-.002a1.57 1.57 0 0 1 .05-.012l.01-.002.052-.011.01-.002a2.47 2.47 0 0 1 .052-.01l.007-.002.061-.01.061-.008c.04-.004.082-.009.126-.012l.065-.005a6.952 6.952 0 0 1 .133-.004h.044l-.203-.386h-.043l-.068.001-.065.003a1.966 1.966 0 0 0-.065.004l-.047.004a3.25 3.25 0 0 0-.14.017l-.06.01h-.008l-.037.008-.016.003-.01.002-.05.01-.01.003a1.865 1.865 0 0 0-.051.012l-.01.003-.03.008a.395.395 0 0 0-.03.008l-.05.015-.008.002c-.017.006-.033.01-.05.017a1.488 1.488 0 0 0-.057.02l-.006.002-.052.02-.011.004a1.251 1.251 0 0 0-.1.044 1.558 1.558 0 0 0-.14.075l-.014.01-.009.005-.04.026a1.348 1.348 0 0 0-.123.098l-.007.007-.008.009a1.091 1.091 0 0 0-.055.055c-.017.02-.03.041-.046.062a.946.946 0 0 0-.049.064c-.005.009-.013.017-.019.026a1.033 1.033 0 0 0-.068.13l-.004.01a1.17 1.17 0 0 0-.052.15l-.01.038c-.003.014-.008.029-.01.042a.86.86 0 0 0-.01.078l-.002.016v.076l.001.003Z" fill="url(#aO)"/><path d="m64.13 64.593.015.026c.151.267.5.486 1.048.655.09.03.2.066.334.102l.338.093-.202-.386-.338-.094a5.677 5.677 0 0 1-.335-.101c-.547-.169-.896-.388-1.047-.656l-.014-.026.202.386Z" fill="url(#aP)"/><path d="m69.694 62.356-.38.887-.09-.006a4.275 4.275 0 0 0-.985-.54 3.758 3.758 0 0 0-.769-.187l-.824 1.928.202.387.825-1.928a3.5 3.5 0 0 1 .992.279c.287.133.541.283.76.447l.09.006.381-.887-.202-.386Z" fill="url(#aQ)"/><path d="M67.201 65.663a.415.415 0 0 0-.058-.083c-.134-.15-.41-.275-.824-.378l-.796 1.862.202.387.796-1.863c.415.104.69.229.824.378a.412.412 0 0 1 .058.083l-.202-.386Z" fill="url(#aR)"/><path d="m64.752 68.07-.202-.386a7.544 7.544 0 0 1-1.259-.21 5.368 5.368 0 0 1-.802-.27 3.404 3.404 0 0 1-.218-.106l.202.386c.274.146.614.27 1.02.375a7.772 7.772 0 0 0 1.258.211Z" fill="url(#aS)"/><path d="M68.665 66.043v-.045c0-.006-.003-.013-.003-.02-.003-.022-.005-.046-.01-.068l-.001-.01-.007-.027c-.004-.015-.007-.03-.012-.044l-.007-.02a.593.593 0 0 0-.01-.028l-.01-.027a1.018 1.018 0 0 0-.024-.05l-.203-.386a.744.744 0 0 1 .063.17l.007.027a.723.723 0 0 1 .012.078l.002.02c.002.014 0 .029.001.044a.678.678 0 0 1 .001.064l-.002.018a1.155 1.155 0 0 1-.013.118l-.009.044a1.332 1.332 0 0 1-.026.103l-.013.043a1.715 1.715 0 0 1-.055.15l-.015.03a1.557 1.557 0 0 1-.139.244l-.036.054a1.658 1.658 0 0 1-.08.1l-.032.038c-.023.026-.05.051-.075.077l-.06.06a2.311 2.311 0 0 1-.142.121c-.012.01-.025.018-.037.027a2.86 2.86 0 0 1-.12.087l-.056.036c-.039.025-.079.05-.12.073a3.815 3.815 0 0 1-.25.133c-.047.024-.096.044-.145.066l-.087.038-.1.038c-.044.016-.087.033-.131.048l-.078.025-.174.053-.081.02a4.564 4.564 0 0 1-.223.051l-.08.016a4.74 4.74 0 0 1-.398.056l-.076.007c-.121.01-.244.018-.37.02l-.695 1.624-.684-.053.202.386.685.053.695-1.624c.125-.002.248-.01.37-.02.014-.001.03 0 .044-.002l.03-.004c.136-.014.268-.032.398-.056l.03-.005.051-.011a4.8 4.8 0 0 0 .223-.051l.054-.013.026-.008c.059-.016.116-.034.174-.052.021-.008.044-.013.066-.02l.012-.005c.044-.015.087-.032.13-.049a1.3 1.3 0 0 0 .092-.034l.01-.004.085-.037c.039-.017.078-.033.116-.051l.031-.014.157-.08.03-.018.062-.035.069-.04.051-.034.056-.036.035-.023c.03-.021.058-.043.086-.064.011-.01.024-.017.036-.027l.01-.008c.045-.035.087-.071.128-.108l.004-.005.06-.06c.023-.023.049-.047.07-.072l.006-.006.031-.038a1.656 1.656 0 0 0 .117-.153c.014-.02.03-.041.043-.063l.011-.021c.031-.053.06-.106.084-.16l.011-.022.004-.009c.022-.05.04-.1.056-.15l.013-.043c.01-.035.019-.07.026-.103l.006-.027.003-.017a.99.99 0 0 0 .013-.118l.002-.014v-.003l-.001-.065Z" fill="url(#aT)"/><path d="M67.749 61.86c.361.037.72.104 1.083.201.361.096.648.196.862.295l-.38.888-.09-.007a4.275 4.275 0 0 0-.76-.447 3.496 3.496 0 0 0-.993-.28l-.825 1.93c.122.031.237.062.34.093.105.032.195.058.273.079.503.137.853.336 1.05.595.197.259.21.59.039.99-.19.439-.576.799-1.162 1.08a4.58 4.58 0 0 1-1.943.437l-.695 1.625-.684-.053.686-1.601a7.544 7.544 0 0 1-1.258-.212 4.742 4.742 0 0 1-1.02-.375l.388-.906.09.007c.24.201.534.372.885.512.348.142.748.244 1.198.31l.83-1.938-.339-.094a5.656 5.656 0 0 1-.334-.101c-.548-.169-.897-.388-1.048-.655-.152-.268-.15-.583.004-.944.181-.425.562-.778 1.14-1.057.018-.01.036-.017.054-.026l.053-.024.055-.024.026-.011.028-.012.027-.011a.857.857 0 0 1 .029-.011l.027-.01.028-.012.029-.01a.626.626 0 0 1 .028-.01l.028-.01.028-.01.028-.01.03-.01a3.199 3.199 0 0 0 .058-.018l.028-.008a.834.834 0 0 1 .03-.01l.028-.008.03-.008.028-.008.03-.008.029-.007a.707.707 0 0 1 .031-.008l.029-.007a.863.863 0 0 1 .06-.013l.032-.007.028-.006.033-.007.028-.005.033-.007.028-.005.034-.006.028-.005.035-.006a.635.635 0 0 0 .027-.004l.036-.005.064-.009.066-.008.066-.007.07-.006.07-.006a5.74 5.74 0 0 1 .21-.01l.067-.003h.14l.522-1.221.685.051-.52 1.212.002.002Zm-1.76 2.46.797-1.858h-.044a1.61 1.61 0 0 0-.133.004 1.966 1.966 0 0 0-.19.016 1.37 1.37 0 0 0-.062.009l-.06.01h-.008a2.066 2.066 0 0 0-.053.01l-.01.002-.05.011-.01.002a2.48 2.48 0 0 0-.051.013l-.01.002a1.75 1.75 0 0 0-.05.014l-.009.003-.05.014-.008.003-.05.016-.008.003-.05.018-.006.002-.05.02-.058.023c-.308.132-.52.332-.637.602-.112.266-.113.479.004.637.116.16.401.3.856.425v-.001Zm1.154 1.26c-.134-.15-.41-.275-.824-.378l-.796 1.862c.423-.005.77-.073 1.043-.204.274-.133.473-.344.597-.634.12-.281.114-.497-.02-.646Z" fill="url(#aU)"/><defs><linearGradient id="f" x1="8.815" y1="49.956" x2="5.907" y2="56.457" gradientUnits="userSpaceOnUse"><stop offset=".13" stop-color="#DD8523"/><stop offset=".26" stop-color="#E69A28"/><stop offset=".39" stop-color="#ECA72B"/><stop offset=".51" stop-color="#EFAC2D"/><stop offset="1" stop-color="#F8D54E"/></linearGradient><linearGradient id="h" x1="8.058" y1="62.337" x2="8.319" y2="64.991" gradientUnits="userSpaceOnUse"><stop stop-color="#F8D54E"/><stop offset=".15" stop-color="#E7B134"/><stop offset=".31" stop-color="#D7911D"/><stop offset=".47" stop-color="#CC790D"/><stop offset=".62" stop-color="#C66B03"/><stop offset=".75" stop-color="#C46700"/><stop offset="1" stop-color="#DD8523"/></linearGradient><linearGradient id="i" x1="7.031" y1="62.438" x2="7.293" y2="65.092" gradientUnits="userSpaceOnUse"><stop stop-color="#F8D54E"/><stop offset=".15" stop-color="#E7B134"/><stop offset=".31" stop-color="#D7911D"/><stop offset=".47" stop-color="#CC790D"/><stop offset=".62" stop-color="#C66B03"/><stop offset=".75" stop-color="#C46700"/><stop offset="1" stop-color="#DD8523"/></linearGradient><linearGradient id="j" x1="8.202" y1="61.925" x2="8.463" y2="64.58" gradientUnits="userSpaceOnUse"><stop stop-color="#F8D54E"/><stop offset=".15" stop-color="#E7B134"/><stop offset=".31" stop-color="#D7911D"/><stop offset=".47" stop-color="#CC790D"/><stop offset=".62" stop-color="#C66B03"/><stop offset=".75" stop-color="#C46700"/><stop offset="1" stop-color="#DD8523"/></linearGradient><linearGradient id="k" x1="12.928" y1="61.857" x2="13.189" y2="64.511" gradientUnits="userSpaceOnUse"><stop stop-color="#F8D54E"/><stop offset=".15" stop-color="#E7B134"/><stop offset=".31" stop-color="#D7911D"/><stop offset=".47" stop-color="#CC790D"/><stop offset=".62" stop-color="#C66B03"/><stop offset=".75" stop-color="#C46700"/><stop offset="1" stop-color="#DD8523"/></linearGradient><linearGradient id="l" x1="3.808" y1="65.746" x2="15.201" y2="59.886" gradientUnits="userSpaceOnUse"><stop stop-color="#FFFDA6"/><stop offset=".17" stop-color="#F8D54E"/><stop offset=".69" stop-color="#EFAC2D"/><stop offset="1" stop-color="#DD8523"/></linearGradient><linearGradient id="m" x1="52.116" y1="2.679" x2="57.089" y2="16.186" gradientUnits="userSpaceOnUse"><stop stop-color="#FFFDA6"/><stop offset=".35" stop-color="#F8D54E"/><stop offset=".45" stop-color="#F5CF4A"/><stop offset=".56" stop-color="#EEC13F"/><stop offset=".68" stop-color="#E3A82E"/><stop offset=".81" stop-color="#D38616"/><stop offset=".91" stop-color="#C46700"/><stop offset=".95" stop-color="#C56902"/><stop offset=".97" stop-color="#CB700A"/><stop offset=".99" stop-color="#D57C18"/><stop offset="1" stop-color="#DD8523"/></linearGradient><linearGradient id="o" x1="54.441" y1="4.662" x2="58.348" y2="17.868" gradientUnits="userSpaceOnUse"><stop offset=".13" stop-color="#DD8523"/><stop offset=".26" stop-color="#E69A28"/><stop offset=".39" stop-color="#ECA72B"/><stop offset=".51" stop-color="#EFAC2D"/><stop offset="1" stop-color="#F8D54E"/></linearGradient><linearGradient id="q" x1="56.592" y1="6.394" x2="56.42" y2="16.171" gradientUnits="userSpaceOnUse"><stop stop-color="#F8D54E"/><stop offset=".15" stop-color="#E7B134"/><stop offset=".31" stop-color="#D7911D"/><stop offset=".47" stop-color="#CC790D"/><stop offset=".62" stop-color="#C66B03"/><stop offset=".75" stop-color="#C46700"/><stop offset="1" stop-color="#DD8523"/></linearGradient><linearGradient id="r" x1="55.747" y1="6.379" x2="55.575" y2="16.156" gradientUnits="userSpaceOnUse"><stop stop-color="#F8D54E"/><stop offset=".15" stop-color="#E7B134"/><stop offset=".31" stop-color="#D7911D"/><stop offset=".47" stop-color="#CC790D"/><stop offset=".62" stop-color="#C66B03"/><stop offset=".75" stop-color="#C46700"/><stop offset="1" stop-color="#DD8523"/></linearGradient><linearGradient id="s" x1="55.977" y1="6.286" x2="56.036" y2="14.794" gradientUnits="userSpaceOnUse"><stop stop-color="#FFFDA6"/><stop offset=".37" stop-color="#F8D54E"/><stop offset=".69" stop-color="#EFAC2D"/><stop offset="1" stop-color="#DD8523"/></linearGradient><linearGradient id="u" x1="57.562" y1="38.31" x2="61.565" y2="66.302" gradientUnits="userSpaceOnUse"><stop stop-color="#BBE4A7"/><stop offset=".04" stop-color="#ADDEA0"/><stop offset=".15" stop-color="#86CE8C"/><stop offset=".21" stop-color="#78C885"/><stop offset=".53" stop-color="#78C885"/><stop offset=".82" stop-color="#78C885"/><stop offset="1" stop-color="#3D9C6C"/></linearGradient><linearGradient id="v" x1="56.159" y1="36.033" x2="61.201" y2="62.648" gradientUnits="userSpaceOnUse"><stop stop-color="#BBE4A7"/><stop offset=".03" stop-color="#9FD899"/><stop offset=".07" stop-color="#89CF8E"/><stop offset=".11" stop-color="#7CC987"/><stop offset=".14" stop-color="#78C885"/><stop offset=".51" stop-color="#78C885"/></linearGradient><linearGradient id="w" x1="30.586" y1="56.662" x2="87.821" y2="45.588" gradientUnits="userSpaceOnUse"><stop offset=".02" stop-color="#BBE4A7"/><stop offset=".04" stop-color="#9FD899"/><stop offset=".06" stop-color="#89CF8E"/><stop offset=".07" stop-color="#7CC987"/><stop offset=".09" stop-color="#78C885"/><stop offset=".87" stop-color="#78C885"/><stop offset=".89" stop-color="#72C482"/><stop offset=".92" stop-color="#63B97C"/><stop offset=".96" stop-color="#4BA672"/><stop offset=".97" stop-color="#3D9C6C"/></linearGradient><linearGradient id="y" x1="44.702" y1="36.5" x2="52.274" y2="61.415" gradientUnits="userSpaceOnUse"><stop stop-color="#BBE4A7"/><stop offset=".04" stop-color="#ADDEA0"/><stop offset=".15" stop-color="#86CE8C"/><stop offset=".21" stop-color="#78C885"/><stop offset=".53" stop-color="#78C885"/><stop offset=".82" stop-color="#78C885"/><stop offset="1" stop-color="#3D9C6C"/></linearGradient><linearGradient id="z" x1="43.467" y1="35.556" x2="52.152" y2="60.087" gradientUnits="userSpaceOnUse"><stop stop-color="#BBE4A7"/><stop offset=".03" stop-color="#9FD899"/><stop offset=".07" stop-color="#89CF8E"/><stop offset=".11" stop-color="#7CC987"/><stop offset=".14" stop-color="#78C885"/><stop offset=".51" stop-color="#78C885"/></linearGradient><linearGradient id="A" x1="19.584" y1="59.95" x2="77.704" y2="39.118" gradientUnits="userSpaceOnUse"><stop offset=".02" stop-color="#BBE4A7"/><stop offset=".04" stop-color="#9FD899"/><stop offset=".06" stop-color="#89CF8E"/><stop offset=".07" stop-color="#7CC987"/><stop offset=".09" stop-color="#78C885"/><stop offset=".87" stop-color="#78C885"/><stop offset=".89" stop-color="#72C482"/><stop offset=".92" stop-color="#63B97C"/><stop offset=".96" stop-color="#4BA672"/><stop offset=".97" stop-color="#3D9C6C"/></linearGradient><linearGradient id="C" x1="41.4" y1="35.18" x2="48.972" y2="60.094" gradientUnits="userSpaceOnUse"><stop stop-color="#BBE4A7"/><stop offset=".04" stop-color="#ADDEA0"/><stop offset=".15" stop-color="#86CE8C"/><stop offset=".21" stop-color="#78C885"/><stop offset=".53" stop-color="#78C885"/><stop offset=".82" stop-color="#78C885"/><stop offset="1" stop-color="#3D9C6C"/></linearGradient><linearGradient id="D" x1="40.163" y1="34.236" x2="48.848" y2="58.767" gradientUnits="userSpaceOnUse"><stop stop-color="#BBE4A7"/><stop offset=".03" stop-color="#9FD899"/><stop offset=".07" stop-color="#89CF8E"/><stop offset=".11" stop-color="#7CC987"/><stop offset=".14" stop-color="#78C885"/><stop offset=".51" stop-color="#78C885"/></linearGradient><linearGradient id="E" x1="16.277" y1="58.63" x2="74.396" y2="37.797" gradientUnits="userSpaceOnUse"><stop offset=".02" stop-color="#BBE4A7"/><stop offset=".04" stop-color="#9FD899"/><stop offset=".06" stop-color="#89CF8E"/><stop offset=".07" stop-color="#7CC987"/><stop offset=".09" stop-color="#78C885"/><stop offset=".87" stop-color="#78C885"/><stop offset=".89" stop-color="#72C482"/><stop offset=".92" stop-color="#63B97C"/><stop offset=".96" stop-color="#4BA672"/><stop offset=".97" stop-color="#3D9C6C"/></linearGradient><linearGradient id="G" x1="38.106" y1="33.861" x2="45.678" y2="58.776" gradientUnits="userSpaceOnUse"><stop stop-color="#BBE4A7"/><stop offset=".04" stop-color="#ADDEA0"/><stop offset=".15" stop-color="#86CE8C"/><stop offset=".21" stop-color="#78C885"/><stop offset=".53" stop-color="#78C885"/><stop offset=".82" stop-color="#78C885"/><stop offset="1" stop-color="#3D9C6C"/></linearGradient><linearGradient id="H" x1="36.87" y1="32.917" x2="45.556" y2="57.447" gradientUnits="userSpaceOnUse"><stop stop-color="#BBE4A7"/><stop offset=".03" stop-color="#9FD899"/><stop offset=".07" stop-color="#89CF8E"/><stop offset=".11" stop-color="#7CC987"/><stop offset=".14" stop-color="#78C885"/><stop offset=".51" stop-color="#78C885"/></linearGradient><linearGradient id="I" x1="12.984" y1="57.312" x2="71.104" y2="36.479" gradientUnits="userSpaceOnUse"><stop offset=".02" stop-color="#BBE4A7"/><stop offset=".04" stop-color="#9FD899"/><stop offset=".06" stop-color="#89CF8E"/><stop offset=".07" stop-color="#7CC987"/><stop offset=".09" stop-color="#78C885"/><stop offset=".87" stop-color="#78C885"/><stop offset=".89" stop-color="#72C482"/><stop offset=".92" stop-color="#63B97C"/><stop offset=".96" stop-color="#4BA672"/><stop offset=".97" stop-color="#3D9C6C"/></linearGradient><linearGradient id="L" x1="29.847" y1="32.48" x2="39.803" y2="57.566" gradientUnits="userSpaceOnUse"><stop stop-color="#BBE4A7"/><stop offset=".04" stop-color="#ADDEA0"/><stop offset=".15" stop-color="#86CE8C"/><stop offset=".21" stop-color="#78C885"/><stop offset=".53" stop-color="#78C885"/><stop offset=".82" stop-color="#78C885"/><stop offset="1" stop-color="#3D9C6C"/></linearGradient><linearGradient id="M" x1="28.465" y1="31.652" x2="39.512" y2="56.194" gradientUnits="userSpaceOnUse"><stop stop-color="#BBE4A7"/><stop offset=".03" stop-color="#9FD899"/><stop offset=".07" stop-color="#89CF8E"/><stop offset=".11" stop-color="#7CC987"/><stop offset=".14" stop-color="#78C885"/><stop offset=".51" stop-color="#78C885"/></linearGradient><linearGradient id="N" x1="6.658" y1="58.478" x2="63.277" y2="32.723" gradientUnits="userSpaceOnUse"><stop offset=".02" stop-color="#BBE4A7"/><stop offset=".04" stop-color="#9FD899"/><stop offset=".06" stop-color="#89CF8E"/><stop offset=".07" stop-color="#7CC987"/><stop offset=".09" stop-color="#78C885"/><stop offset=".87" stop-color="#78C885"/><stop offset=".89" stop-color="#72C482"/><stop offset=".92" stop-color="#63B97C"/><stop offset=".96" stop-color="#4BA672"/><stop offset=".97" stop-color="#3D9C6C"/></linearGradient><linearGradient id="O" x1="22.95" y1="75.981" x2="8.867" y2="34.889" gradientUnits="userSpaceOnUse"><stop stop-color="#A23037"/><stop offset=".08" stop-color="#A53237"/><stop offset=".16" stop-color="#B13B38"/><stop offset=".24" stop-color="#C44A3A"/><stop offset=".32" stop-color="#DF5F3C"/><stop offset=".36" stop-color="#F16D3E"/><stop offset=".72" stop-color="#F16D3E"/><stop offset=".89" stop-color="#FB793F"/><stop offset=".9" stop-color="#FA834E"/><stop offset=".93" stop-color="#F8996F"/><stop offset=".96" stop-color="#F7A986"/><stop offset=".98" stop-color="#F7B295"/><stop offset="1" stop-color="#F7B69A"/></linearGradient><linearGradient id="P" x1="30.708" y1="45.754" x2="36.401" y2="45.505" gradientUnits="userSpaceOnUse"><stop stop-color="#EFAB26"/><stop offset="1" stop-color="#DD8523"/></linearGradient><linearGradient id="Q" x1="30.942" y1="40.51" x2="34.753" y2="51.403" gradientUnits="userSpaceOnUse"><stop stop-color="#F6D246"/><stop offset=".46" stop-color="#FFFDA6"/><stop offset=".54" stop-color="#FDF59A"/><stop offset=".69" stop-color="#F9E07C"/><stop offset=".89" stop-color="#F2C04A"/><stop offset="1" stop-color="#EFAC2D"/></linearGradient><linearGradient id="R" x1="33.686" y1="4.066" x2="42.215" y2="9.592" gradientUnits="userSpaceOnUse"><stop stop-color="#F8D54E"/><stop offset=".15" stop-color="#E7B134"/><stop offset=".31" stop-color="#D7911D"/><stop offset=".47" stop-color="#CC790D"/><stop offset=".62" stop-color="#C66B03"/><stop offset=".75" stop-color="#C46700"/><stop offset="1" stop-color="#DD8523"/></linearGradient><linearGradient id="T" x1="37.514" y1="1.753" x2="39.676" y2="9.905" gradientUnits="userSpaceOnUse"><stop offset=".13" stop-color="#DD8523"/><stop offset=".26" stop-color="#E69A28"/><stop offset=".39" stop-color="#ECA72B"/><stop offset=".51" stop-color="#EFAC2D"/><stop offset="1" stop-color="#F8D54E"/></linearGradient><linearGradient id="V" x1="42.377" y1="4.584" x2="36.04" y2="7.292" gradientUnits="userSpaceOnUse"><stop offset=".75" stop-color="#C46700"/><stop offset="1" stop-color="#DD8523"/></linearGradient><linearGradient id="W" x1="42.057" y1="3.841" x2="35.72" y2="6.549" gradientUnits="userSpaceOnUse"><stop offset=".75" stop-color="#C46700"/><stop offset="1" stop-color="#DD8523"/></linearGradient><linearGradient id="X" x1="42.005" y1="3.714" x2="35.668" y2="6.422" gradientUnits="userSpaceOnUse"><stop offset=".75" stop-color="#C46700"/><stop offset="1" stop-color="#DD8523"/></linearGradient><linearGradient id="Y" x1="42.612" y1="5.135" x2="36.275" y2="7.843" gradientUnits="userSpaceOnUse"><stop offset=".75" stop-color="#C46700"/><stop offset="1" stop-color="#DD8523"/></linearGradient><linearGradient id="Z" x1="42.477" y1="4.82" x2="36.14" y2="7.529" gradientUnits="userSpaceOnUse"><stop offset=".75" stop-color="#C46700"/><stop offset="1" stop-color="#DD8523"/></linearGradient><linearGradient id="aa" x1="41.922" y1="3.524" x2="35.585" y2="6.233" gradientUnits="userSpaceOnUse"><stop offset=".75" stop-color="#C46700"/><stop offset="1" stop-color="#DD8523"/></linearGradient><linearGradient id="ab" x1="42.589" y1="5.083" x2="36.252" y2="7.791" gradientUnits="userSpaceOnUse"><stop offset=".75" stop-color="#C46700"/><stop offset="1" stop-color="#DD8523"/></linearGradient><linearGradient id="ag" x1="76.57" y1="57.367" x2="73.604" y2="63.995" gradientUnits="userSpaceOnUse"><stop offset=".13" stop-color="#DD8523"/><stop offset=".26" stop-color="#E69A28"/><stop offset=".39" stop-color="#ECA72B"/><stop offset=".51" stop-color="#EFAC2D"/><stop offset="1" stop-color="#F8D54E"/></linearGradient><linearGradient id="ai" x1="75.188" y1="66.969" x2="75.455" y2="69.675" gradientUnits="userSpaceOnUse"><stop stop-color="#F8D54E"/><stop offset=".15" stop-color="#E7B134"/><stop offset=".31" stop-color="#D7911D"/><stop offset=".47" stop-color="#CC790D"/><stop offset=".62" stop-color="#C66B03"/><stop offset=".75" stop-color="#C46700"/><stop offset="1" stop-color="#DD8523"/></linearGradient><linearGradient id="aj" x1="74.141" y1="67.073" x2="74.407" y2="69.778" gradientUnits="userSpaceOnUse"><stop stop-color="#F8D54E"/><stop offset=".15" stop-color="#E7B134"/><stop offset=".31" stop-color="#D7911D"/><stop offset=".47" stop-color="#CC790D"/><stop offset=".62" stop-color="#C66B03"/><stop offset=".75" stop-color="#C46700"/><stop offset="1" stop-color="#DD8523"/></linearGradient><linearGradient id="ak" x1="75.333" y1="66.549" x2="75.6" y2="69.256" gradientUnits="userSpaceOnUse"><stop stop-color="#F8D54E"/><stop offset=".15" stop-color="#E7B134"/><stop offset=".31" stop-color="#D7911D"/><stop offset=".47" stop-color="#CC790D"/><stop offset=".62" stop-color="#C66B03"/><stop offset=".75" stop-color="#C46700"/><stop offset="1" stop-color="#DD8523"/></linearGradient><linearGradient id="al" x1="80.148" y1="66.48" x2="80.415" y2="69.186" gradientUnits="userSpaceOnUse"><stop stop-color="#F8D54E"/><stop offset=".15" stop-color="#E7B134"/><stop offset=".31" stop-color="#D7911D"/><stop offset=".47" stop-color="#CC790D"/><stop offset=".62" stop-color="#C66B03"/><stop offset=".75" stop-color="#C46700"/><stop offset="1" stop-color="#DD8523"/></linearGradient><linearGradient id="am" x1="70.855" y1="70.446" x2="82.469" y2="64.473" gradientUnits="userSpaceOnUse"><stop stop-color="#FFFDA6"/><stop offset=".17" stop-color="#F8D54E"/><stop offset=".69" stop-color="#EFAC2D"/><stop offset="1" stop-color="#DD8523"/></linearGradient><linearGradient id="ap" x1="6.412" y1="20.05" x2="13.77" y2="28.138" gradientUnits="userSpaceOnUse"><stop offset=".13" stop-color="#DD8523"/><stop offset=".26" stop-color="#E69A28"/><stop offset=".39" stop-color="#ECA72B"/><stop offset=".51" stop-color="#EFAC2D"/><stop offset="1" stop-color="#F8D54E"/></linearGradient><linearGradient id="ar" x1="13.553" y1="20.075" x2="16.233" y2="28.131" gradientUnits="userSpaceOnUse"><stop stop-color="#F8D54E"/><stop offset=".15" stop-color="#E7B134"/><stop offset=".31" stop-color="#D7911D"/><stop offset=".47" stop-color="#CC790D"/><stop offset=".62" stop-color="#C66B03"/><stop offset=".75" stop-color="#C46700"/><stop offset="1" stop-color="#DD8523"/></linearGradient><linearGradient id="as" x1="11.751" y1="20.674" x2="14.431" y2="28.73" gradientUnits="userSpaceOnUse"><stop stop-color="#F8D54E"/><stop offset=".15" stop-color="#E7B134"/><stop offset=".31" stop-color="#D7911D"/><stop offset=".47" stop-color="#CC790D"/><stop offset=".62" stop-color="#C66B03"/><stop offset=".75" stop-color="#C46700"/><stop offset="1" stop-color="#DD8523"/></linearGradient><linearGradient id="at" x1="10.793" y1="20.992" x2="13.474" y2="29.049" gradientUnits="userSpaceOnUse"><stop stop-color="#F8D54E"/><stop offset=".15" stop-color="#E7B134"/><stop offset=".31" stop-color="#D7911D"/><stop offset=".47" stop-color="#CC790D"/><stop offset=".62" stop-color="#C66B03"/><stop offset=".75" stop-color="#C46700"/><stop offset="1" stop-color="#DD8523"/></linearGradient><linearGradient id="au" x1="13.436" y1="20.114" x2="16.115" y2="28.171" gradientUnits="userSpaceOnUse"><stop stop-color="#F8D54E"/><stop offset=".15" stop-color="#E7B134"/><stop offset=".31" stop-color="#D7911D"/><stop offset=".47" stop-color="#CC790D"/><stop offset=".62" stop-color="#C66B03"/><stop offset=".75" stop-color="#C46700"/><stop offset="1" stop-color="#DD8523"/></linearGradient><linearGradient id="av" x1="9.351" y1="21.472" x2="12.032" y2="29.529" gradientUnits="userSpaceOnUse"><stop stop-color="#F8D54E"/><stop offset=".15" stop-color="#E7B134"/><stop offset=".31" stop-color="#D7911D"/><stop offset=".47" stop-color="#CC790D"/><stop offset=".62" stop-color="#C66B03"/><stop offset=".75" stop-color="#C46700"/><stop offset="1" stop-color="#DD8523"/></linearGradient><linearGradient id="aw" x1="11.683" y1="20.698" x2="14.363" y2="28.754" gradientUnits="userSpaceOnUse"><stop stop-color="#F8D54E"/><stop offset=".15" stop-color="#E7B134"/><stop offset=".31" stop-color="#D7911D"/><stop offset=".47" stop-color="#CC790D"/><stop offset=".62" stop-color="#C66B03"/><stop offset=".75" stop-color="#C46700"/><stop offset="1" stop-color="#DD8523"/></linearGradient><linearGradient id="ax" x1="11.446" y1="20.776" x2="14.126" y2="28.833" gradientUnits="userSpaceOnUse"><stop stop-color="#F8D54E"/><stop offset=".15" stop-color="#E7B134"/><stop offset=".31" stop-color="#D7911D"/><stop offset=".47" stop-color="#CC790D"/><stop offset=".62" stop-color="#C66B03"/><stop offset=".75" stop-color="#C46700"/><stop offset="1" stop-color="#DD8523"/></linearGradient><linearGradient id="ay" x1="11.813" y1="21.304" x2="14.01" y2="28.727" gradientUnits="userSpaceOnUse"><stop stop-color="#DD8523"/><stop offset=".14" stop-color="#EFAC2D"/><stop offset=".47" stop-color="#F8D54E"/><stop offset=".97" stop-color="#FFFDA6"/></linearGradient><linearGradient id="az" x1="29.935" y1="20.141" x2="45.105" y2="32.89" gradientUnits="userSpaceOnUse"><stop stop-color="#FFFDA6"/><stop offset=".35" stop-color="#F8D54E"/><stop offset=".45" stop-color="#F5CF4A"/><stop offset=".56" stop-color="#EEC13F"/><stop offset=".68" stop-color="#E3A82E"/><stop offset=".81" stop-color="#D38616"/><stop offset=".91" stop-color="#C46700"/><stop offset=".95" stop-color="#C56902"/><stop offset=".97" stop-color="#CB700A"/><stop offset=".99" stop-color="#D57C18"/><stop offset="1" stop-color="#DD8523"/></linearGradient><linearGradient id="aC" x1="34.069" y1="20.923" x2="47.757" y2="34.041" gradientUnits="userSpaceOnUse"><stop offset=".13" stop-color="#DD8523"/><stop offset=".26" stop-color="#E69A28"/><stop offset=".39" stop-color="#ECA72B"/><stop offset=".51" stop-color="#EFAC2D"/><stop offset="1" stop-color="#F8D54E"/></linearGradient><linearGradient id="aE" x1="35.384" y1="21.823" x2="43.517" y2="29.779" gradientUnits="userSpaceOnUse"><stop stop-color="#F8D54E"/><stop offset=".15" stop-color="#E7B134"/><stop offset=".31" stop-color="#D7911D"/><stop offset=".47" stop-color="#CC790D"/><stop offset=".62" stop-color="#C66B03"/><stop offset=".75" stop-color="#C46700"/><stop offset="1" stop-color="#DD8523"/></linearGradient><linearGradient id="aF" x1="34.881" y1="22.338" x2="43.013" y2="30.294" gradientUnits="userSpaceOnUse"><stop stop-color="#F8D54E"/><stop offset=".15" stop-color="#E7B134"/><stop offset=".31" stop-color="#D7911D"/><stop offset=".47" stop-color="#CC790D"/><stop offset=".62" stop-color="#C66B03"/><stop offset=".75" stop-color="#C46700"/><stop offset="1" stop-color="#DD8523"/></linearGradient><linearGradient id="aG" x1="34.702" y1="22.521" x2="42.834" y2="30.476" gradientUnits="userSpaceOnUse"><stop stop-color="#F8D54E"/><stop offset=".15" stop-color="#E7B134"/><stop offset=".31" stop-color="#D7911D"/><stop offset=".47" stop-color="#CC790D"/><stop offset=".62" stop-color="#C66B03"/><stop offset=".75" stop-color="#C46700"/><stop offset="1" stop-color="#DD8523"/></linearGradient><linearGradient id="aH" x1="34.984" y1="21.582" x2="43.072" y2="29.626" gradientUnits="userSpaceOnUse"><stop stop-color="#EFAC2D"/><stop offset=".7" stop-color="#F8D54E"/><stop offset="1" stop-color="#E9A02A"/></linearGradient><linearGradient id="aI" x1="58.814" y1="69.059" x2="74.101" y2="65.096" gradientUnits="userSpaceOnUse"><stop stop-color="#F8D54E"/><stop offset=".15" stop-color="#E7B134"/><stop offset=".31" stop-color="#D7911D"/><stop offset=".47" stop-color="#CC790D"/><stop offset=".62" stop-color="#C66B03"/><stop offset=".75" stop-color="#C46700"/><stop offset="1" stop-color="#DD8523"/></linearGradient><linearGradient id="aL" x1="60.187" y1="62.245" x2="71.792" y2="68.332" gradientUnits="userSpaceOnUse"><stop offset=".13" stop-color="#DD8523"/><stop offset=".26" stop-color="#E69A28"/><stop offset=".39" stop-color="#ECA72B"/><stop offset=".51" stop-color="#EFAC2D"/><stop offset="1" stop-color="#F8D54E"/></linearGradient><linearGradient id="aN" x1="64.443" y1="60.615" x2="70.058" y2="61.891" gradientUnits="userSpaceOnUse"><stop stop-color="#F8D54E"/><stop offset=".15" stop-color="#E7B134"/><stop offset=".31" stop-color="#D7911D"/><stop offset=".47" stop-color="#CC790D"/><stop offset=".62" stop-color="#C66B03"/><stop offset=".75" stop-color="#C46700"/><stop offset="1" stop-color="#DD8523"/></linearGradient><linearGradient id="aO" x1="63.933" y1="62.864" x2="69.549" y2="64.14" gradientUnits="userSpaceOnUse"><stop stop-color="#F8D54E"/><stop offset=".15" stop-color="#E7B134"/><stop offset=".31" stop-color="#D7911D"/><stop offset=".47" stop-color="#CC790D"/><stop offset=".62" stop-color="#C66B03"/><stop offset=".75" stop-color="#C46700"/><stop offset="1" stop-color="#DD8523"/></linearGradient><linearGradient id="aP" x1="63.554" y1="64.533" x2="69.169" y2="65.808" gradientUnits="userSpaceOnUse"><stop stop-color="#F8D54E"/><stop offset=".15" stop-color="#E7B134"/><stop offset=".31" stop-color="#D7911D"/><stop offset=".47" stop-color="#CC790D"/><stop offset=".62" stop-color="#C66B03"/><stop offset=".75" stop-color="#C46700"/><stop offset="1" stop-color="#DD8523"/></linearGradient><linearGradient id="aQ" x1="63.989" y1="62.617" x2="69.604" y2="63.894" gradientUnits="userSpaceOnUse"><stop stop-color="#F8D54E"/><stop offset=".15" stop-color="#E7B134"/><stop offset=".31" stop-color="#D7911D"/><stop offset=".47" stop-color="#CC790D"/><stop offset=".62" stop-color="#C66B03"/><stop offset=".75" stop-color="#C46700"/><stop offset="1" stop-color="#DD8523"/></linearGradient><linearGradient id="aR" x1="63.288" y1="65.705" x2="68.903" y2="66.981" gradientUnits="userSpaceOnUse"><stop stop-color="#F8D54E"/><stop offset=".15" stop-color="#E7B134"/><stop offset=".31" stop-color="#D7911D"/><stop offset=".47" stop-color="#CC790D"/><stop offset=".62" stop-color="#C66B03"/><stop offset=".75" stop-color="#C46700"/><stop offset="1" stop-color="#DD8523"/></linearGradient><linearGradient id="aS" x1="62.883" y1="67.481" x2="68.499" y2="68.757" gradientUnits="userSpaceOnUse"><stop stop-color="#F8D54E"/><stop offset=".15" stop-color="#E7B134"/><stop offset=".31" stop-color="#D7911D"/><stop offset=".47" stop-color="#CC790D"/><stop offset=".62" stop-color="#C66B03"/><stop offset=".75" stop-color="#C46700"/><stop offset="1" stop-color="#DD8523"/></linearGradient><linearGradient id="aT" x1="63.043" y1="66.772" x2="68.659" y2="68.049" gradientUnits="userSpaceOnUse"><stop stop-color="#F8D54E"/><stop offset=".15" stop-color="#E7B134"/><stop offset=".31" stop-color="#D7911D"/><stop offset=".47" stop-color="#CC790D"/><stop offset=".62" stop-color="#C66B03"/><stop offset=".75" stop-color="#C46700"/><stop offset="1" stop-color="#DD8523"/></linearGradient><linearGradient id="aU" x1="62.272" y1="64.968" x2="69.695" y2="64.968" gradientUnits="userSpaceOnUse"><stop stop-color="#FFFDA6"/><stop offset=".37" stop-color="#F8D54E"/><stop offset=".69" stop-color="#EFAC2D"/><stop offset="1" stop-color="#DD8523"/></linearGradient><radialGradient id="b" cx="0" cy="0" r="1" gradientUnits="userSpaceOnUse" gradientTransform="translate(9.348 56.362) scale(17.1933)"><stop offset=".13" stop-color="#F6D246"/><stop offset=".8" stop-color="#F6D246"/><stop offset=".81" stop-color="#F2BE39"/><stop offset=".83" stop-color="#EEAB2C"/><stop offset=".84" stop-color="#E69A28"/><stop offset=".86" stop-color="#E18D25"/><stop offset=".88" stop-color="#DD8623"/><stop offset=".93" stop-color="#DD8523"/><stop offset="1" stop-color="#EFAC2D"/></radialGradient><radialGradient id="d" cx="0" cy="0" r="1" gradientUnits="userSpaceOnUse" gradientTransform="translate(-25.984 52.936) scale(17.1933)"><stop offset=".13" stop-color="#F6D246"/><stop offset=".8" stop-color="#F6D246"/><stop offset=".81" stop-color="#F2BE39"/><stop offset=".83" stop-color="#EEAB2C"/><stop offset=".84" stop-color="#E69A28"/><stop offset=".86" stop-color="#E18D25"/><stop offset=".88" stop-color="#DD8623"/><stop offset=".93" stop-color="#DD8523"/><stop offset="1" stop-color="#EFAC2D"/></radialGradient><radialGradient id="e" cx="0" cy="0" r="1" gradientUnits="userSpaceOnUse" gradientTransform="translate(7.643 51.98) scale(18.3655)"><stop offset=".55" stop-color="#EFAC2D"/><stop offset=".72" stop-color="#F8D54E"/><stop offset=".97" stop-color="#FFFDA6"/></radialGradient><radialGradient id="g" cx="0" cy="0" r="1" gradientUnits="userSpaceOnUse" gradientTransform="rotate(27.09 -165.352 211.218) scale(5.94808 5.7622)"><stop stop-color="#F8D54E"/><stop offset=".3" stop-color="#F6CF49"/><stop offset=".66" stop-color="#F3C03D"/><stop offset="1" stop-color="#EFAC2D"/></radialGradient><radialGradient id="n" cx="0" cy="0" r="1" gradientUnits="userSpaceOnUse" gradientTransform="rotate(29.74 6.547 104.277) scale(8.52686)"><stop offset=".04" stop-color="#EFAC2D"/><stop offset=".4" stop-color="#F5C642"/><stop offset=".79" stop-color="#F8D54E"/><stop offset=".99" stop-color="#FFFDA6"/></radialGradient><radialGradient id="p" cx="0" cy="0" r="1" gradientUnits="userSpaceOnUse" gradientTransform="matrix(5.91748 3.37938 -3.44905 6.03948 52.935 7.086)"><stop stop-color="#DD8523"/><stop offset=".35" stop-color="#E69A28"/><stop offset=".69" stop-color="#ECA72B"/><stop offset="1" stop-color="#EFAC2D"/></radialGradient><radialGradient id="J" cx="0" cy="0" r="1" gradientUnits="userSpaceOnUse" gradientTransform="translate(83.542 53.884) scale(64.8401)"><stop stop-color="#729EB1"/><stop offset=".17" stop-color="#7BA5B6"/><stop offset=".45" stop-color="#95B9C3"/><stop offset=".8" stop-color="#BED8D9"/></radialGradient><radialGradient id="S" cx="0" cy="0" r="1" gradientUnits="userSpaceOnUse" gradientTransform="rotate(50.73 13.127 43.675) scale(6.84756)"><stop offset=".55" stop-color="#EFAC2D"/><stop offset=".72" stop-color="#F8D54E"/><stop offset=".97" stop-color="#FFFDA6"/></radialGradient><radialGradient id="U" cx="0" cy="0" r="1" gradientUnits="userSpaceOnUse" gradientTransform="rotate(50.73 12.544 43.727) scale(5.93441)"><stop stop-color="#DD8523"/><stop offset=".35" stop-color="#E69A28"/><stop offset=".69" stop-color="#ECA72B"/><stop offset="1" stop-color="#EFAC2D"/></radialGradient><radialGradient id="ac" cx="0" cy="0" r="1" gradientUnits="userSpaceOnUse" gradientTransform="matrix(5.354 -.07663 .07006 4.89509 37.26 5.74)"><stop offset=".01" stop-color="#F8D54E"/><stop offset=".76" stop-color="#EFAC2D"/><stop offset="1" stop-color="#DD8523"/></radialGradient><radialGradient id="ae" cx="0" cy="0" r="1" gradientUnits="userSpaceOnUse" gradientTransform="translate(76.525 57.388) scale(17.527)"><stop offset=".13" stop-color="#F6D246"/><stop offset=".8" stop-color="#F6D246"/><stop offset=".81" stop-color="#F2BE39"/><stop offset=".83" stop-color="#EEAB2C"/><stop offset=".84" stop-color="#E69A28"/><stop offset=".86" stop-color="#E18D25"/><stop offset=".88" stop-color="#DD8623"/><stop offset=".93" stop-color="#DD8523"/><stop offset="1" stop-color="#EFAC2D"/></radialGradient><radialGradient id="af" cx="0" cy="0" r="1" gradientUnits="userSpaceOnUse" gradientTransform="translate(74.764 56.412) scale(18.7216)"><stop offset=".55" stop-color="#EFAC2D"/><stop offset=".72" stop-color="#F8D54E"/><stop offset=".97" stop-color="#FFFDA6"/></radialGradient><radialGradient id="ah" cx="0" cy="0" r="1" gradientUnits="userSpaceOnUse" gradientTransform="matrix(5.39824 2.76123 -2.67494 5.22955 124.194 92.544)"><stop stop-color="#F8D54E"/><stop offset=".3" stop-color="#F6CF49"/><stop offset=".66" stop-color="#F3C03D"/><stop offset="1" stop-color="#EFAC2D"/></radialGradient><radialGradient id="an" cx="0" cy="0" r="1" gradientUnits="userSpaceOnUse" gradientTransform="rotate(4.9 -274.003 140.572) scale(10.873)"><stop offset=".13" stop-color="#F6D246"/><stop offset=".8" stop-color="#F6D246"/><stop offset=".81" stop-color="#F2BE39"/><stop offset=".83" stop-color="#EEAB2C"/><stop offset=".84" stop-color="#E69A28"/><stop offset=".86" stop-color="#E18D25"/><stop offset=".88" stop-color="#DD8623"/><stop offset=".93" stop-color="#DD8523"/><stop offset="1" stop-color="#EFAC2D"/></radialGradient><radialGradient id="ao" cx="0" cy="0" r="1" gradientUnits="userSpaceOnUse" gradientTransform="translate(12.75 24.539) scale(9.13461)"><stop offset=".55" stop-color="#EFAC2D"/><stop offset=".72" stop-color="#F8D54E"/><stop offset=".97" stop-color="#FFFDA6"/></radialGradient><radialGradient id="aq" cx="0" cy="0" r="1" gradientUnits="userSpaceOnUse" gradientTransform="matrix(7.16205 -2.64364 2.7392 7.42092 16.29 24.118)"><stop stop-color="#F8D54E"/><stop offset=".3" stop-color="#F6CF49"/><stop offset=".66" stop-color="#F3C03D"/><stop offset="1" stop-color="#EFAC2D"/></radialGradient><radialGradient id="aA" cx="0" cy="0" r="1" gradientUnits="userSpaceOnUse" gradientTransform="translate(50.646 12.317) scale(26.3682)"><stop offset=".85" stop-color="#EFAC2D"/><stop offset=".89" stop-color="#ECA62B"/><stop offset=".94" stop-color="#E59727"/><stop offset=".98" stop-color="#DD8523"/><stop offset="1" stop-color="#EFAC2D"/></radialGradient><radialGradient id="aB" cx="0" cy="0" r="1" gradientUnits="userSpaceOnUse" gradientTransform="translate(35.836 29.15) scale(11.7384)"><stop offset=".04" stop-color="#EFAC2D"/><stop offset=".4" stop-color="#F5C642"/><stop offset=".79" stop-color="#F8D54E"/><stop offset=".99" stop-color="#FFFDA6"/></radialGradient><radialGradient id="aD" cx="0" cy="0" r="1" gradientUnits="userSpaceOnUse" gradientTransform="matrix(9.38133 0 0 9.57476 33.882 25.263)"><stop stop-color="#DD8523"/><stop offset=".35" stop-color="#E69A28"/><stop offset=".69" stop-color="#ECA72B"/><stop offset="1" stop-color="#EFAC2D"/></radialGradient><radialGradient id="aJ" cx="0" cy="0" r="1" gradientUnits="userSpaceOnUse" gradientTransform="rotate(-47.47 102.122 -42.37) scale(14.109)"><stop offset=".85" stop-color="#EFAC2D"/><stop offset=".89" stop-color="#ECA62B"/><stop offset=".94" stop-color="#E59727"/><stop offset=".98" stop-color="#DD8523"/><stop offset="1" stop-color="#EFAC2D"/></radialGradient><radialGradient id="aK" cx="0" cy="0" r="1" gradientUnits="userSpaceOnUse" gradientTransform="rotate(3.26 -1114.125 1193.539) scale(10.6402)"><stop offset=".55" stop-color="#EFAC2D"/><stop offset=".72" stop-color="#F8D54E"/><stop offset=".97" stop-color="#FFFDA6"/></radialGradient><radialGradient id="aM" cx="0" cy="0" r="1" gradientUnits="userSpaceOnUse" gradientTransform="rotate(3.26 -1126.157 1200.136) scale(9.22168)"><stop stop-color="#DD8523"/><stop offset=".35" stop-color="#E69A28"/><stop offset=".69" stop-color="#ECA72B"/><stop offset="1" stop-color="#EFAC2D"/></radialGradient></defs></svg>