<svg width="195" height="128" viewBox="0 0 195 128" fill="none" xmlns="http://www.w3.org/2000/svg"><g filter="url(#a)"><mask id="b" style="mask-type:alpha" maskUnits="userSpaceOnUse" x="1" y="11" width="92" height="116"><path d="M86 27.575V11.382H1.222v115.261h91.447v-25.719C68.855 65.202 78.38 39.006 86 27.575Z" fill="#000"/></mask><g opacity=".8" mask="url(#b)"><path d="M53.811 119.421c27.467 0 49.734-22.267 49.734-49.734 0-27.467-22.267-49.733-49.734-49.733-27.467 0-49.733 22.266-49.733 49.733s22.266 49.734 49.733 49.734Z" fill="#EFA100"/><path d="M53.811 115.017c27.467 0 49.734-22.267 49.734-49.734 0-27.467-22.267-49.733-49.734-49.733-27.467 0-49.733 22.266-49.733 49.733s22.266 49.734 49.733 49.734Z" fill="url(#c)"/><path d="M53.812 107.375c23.247 0 42.092-18.846 42.092-42.092 0-23.247-18.845-42.092-42.092-42.092-23.246 0-42.092 18.845-42.092 42.092 0 23.246 18.846 42.092 42.092 42.092Z" fill="#BE7B16"/><path d="M53.812 107.376c22.531 0 40.797-18.266 40.797-40.797S76.343 25.783 53.812 25.783 13.015 44.047 13.015 66.578c0 22.532 18.266 40.797 40.797 40.797Z" fill="url(#d)"/><path d="M58.004 66.506c-.275.022-1.7.106-4.876.106-2.525 0-4.32-.077-4.95-.106-9.764-.43-17.052-2.128-17.052-4.164 0-2.037 7.288-3.733 17.052-4.169v6.64a72.29 72.29 0 0 0 4.994.156c3.032 0 4.55-.126 4.824-.151v-6.639c9.745.434 17.016 2.134 17.016 4.165 0 2.03-7.27 3.729-17.016 4.162h.01-.002Zm0-9.015V51.55h13.598v-9.061H34.58v9.06h13.595v5.94c-11.05.509-19.36 2.696-19.36 5.32 0 2.626 8.31 4.811 19.36 5.321v19.041H58V68.123c11.025-.508 19.322-2.694 19.322-5.315 0-2.621-8.29-4.807-19.322-5.317h.004Z" fill="#fff"/><path d="M58.004 66.506c-.275.022-1.7.106-4.876.106-2.525 0-4.32-.077-4.95-.106-9.764-.43-17.052-2.128-17.052-4.164 0-2.037 7.288-3.733 17.052-4.169v6.64a72.29 72.29 0 0 0 4.994.156c3.032 0 4.55-.126 4.824-.151v-6.639c9.745.434 17.016 2.134 17.016 4.165 0 2.03-7.27 3.729-17.016 4.162h.01-.002Zm0-9.015V51.55h13.598v-9.061H34.58v9.06h13.595v5.94c-11.05.509-19.36 2.696-19.36 5.32 0 2.626 8.31 4.811 19.36 5.321v19.041H58V68.123c11.025-.508 19.322-2.694 19.322-5.315 0-2.621-8.29-4.807-19.322-5.317h.004Z" fill="#BE7B16"/><path d="M59.384 67.425c-.275.022-1.7.106-4.875.106a108.8 108.8 0 0 1-4.95-.106c-9.764-.43-17.052-2.13-17.052-4.164 0-2.035 7.288-3.733 17.052-4.169v6.64a72.75 72.75 0 0 0 4.994.154c3.032 0 4.55-.126 4.824-.151v-6.639c9.743.434 17.014 2.134 17.014 4.165 0 2.03-7.27 3.729-17.015 4.163h.01l-.002.001Zm0-9.015v-5.94h13.597v-9.061H35.96v9.061h13.594v5.94c-11.05.508-19.36 2.697-19.36 5.32s8.31 4.81 19.36 5.32v19.04h9.825V69.044c11.025-.508 19.322-2.694 19.322-5.315 0-2.621-8.29-4.807-19.322-5.317h.002l.002-.002Z" fill="url(#e)"/><g opacity=".25"><path d="M15.085 96.074a49.984 49.984 0 0 0 8.06 8.001L92.99 34.229a50.116 50.116 0 0 0-8-8.06L15.086 96.074Z" fill="url(#f)"/><path d="m99.394 44.83-65.647 65.647a49.876 49.876 0 0 1-4.741-2.42L96.974 40.09a49.395 49.395 0 0 1 2.42 4.742v-.002Z" fill="url(#g)"/></g></g><g opacity=".8"><path d="M134.11 119.092c31.297 0 56.669-25.372 56.669-56.67 0-31.297-25.372-56.669-56.669-56.669-31.298 0-56.67 25.372-56.67 56.67 0 31.297 25.372 56.669 56.67 56.669Z" fill="#EFA100"/><path d="M134.11 114.074c31.297 0 56.669-25.371 56.669-56.669S165.407.735 134.11.735c-31.298 0-56.67 25.372-56.67 56.67 0 31.298 25.372 56.669 56.67 56.669Z" fill="url(#h)"/><path d="M134.109 105.367c26.489 0 47.963-21.474 47.963-47.962 0-26.489-21.474-47.962-47.963-47.962-26.488 0-47.962 21.473-47.962 47.962 0 26.489 21.474 47.962 47.962 47.962Z" fill="#BE7B16"/><path d="M134.107 105.367c25.674 0 46.486-20.813 46.486-46.486 0-25.674-20.812-46.487-46.486-46.487-25.674 0-46.486 20.813-46.486 46.487 0 25.673 20.812 46.486 46.486 46.486Z" fill="url(#i)"/><path d="M138.887 58.798c-.314.024-1.938.12-5.556.12-2.877 0-4.921-.087-5.64-.12-11.126-.49-19.43-2.425-19.43-4.745 0-2.32 8.304-4.254 19.43-4.75v7.566c.727.053 2.81.177 5.69.177 3.455 0 5.186-.144 5.497-.172v-7.565c11.104.494 19.389 2.432 19.389 4.746 0 2.314-8.283 4.249-19.389 4.743h.011-.002Zm0-10.272v-6.77h15.494V31.43h-42.185v10.325h15.491v6.767c-12.591.58-22.06 3.072-22.06 6.063 0 2.99 9.469 5.481 22.06 6.062v21.697h11.195V60.64c12.563-.58 22.017-3.07 22.017-6.056 0-2.987-9.446-5.477-22.017-6.058h.005Z" fill="#fff"/><path d="M138.887 58.798c-.314.024-1.938.12-5.556.12-2.877 0-4.921-.087-5.64-.12-11.126-.49-19.43-2.425-19.43-4.745 0-2.32 8.304-4.254 19.43-4.75v7.566c.727.053 2.81.177 5.69.177 3.455 0 5.186-.144 5.497-.172v-7.565c11.104.494 19.389 2.432 19.389 4.746 0 2.314-8.283 4.249-19.389 4.743h.011-.002Zm0-10.272v-6.77h15.494V31.43h-42.185v10.325h15.491v6.767c-12.591.58-22.06 3.072-22.06 6.063 0 2.99 9.469 5.481 22.06 6.062v21.697h11.195V60.64c12.563-.58 22.017-3.07 22.017-6.056 0-2.987-9.446-5.477-22.017-6.058h.005Z" fill="#BE7B16"/><path d="M140.461 59.846c-.314.024-1.938.12-5.556.12-2.877 0-4.922-.088-5.64-.12-11.126-.49-19.43-2.428-19.43-4.746 0-2.318 8.304-4.254 19.43-4.75v7.567c.727.052 2.81.174 5.69.174 3.455 0 5.186-.144 5.497-.172v-7.564c11.102.494 19.387 2.431 19.387 4.745s-8.283 4.25-19.387 4.743h.011l-.002.003Zm0-10.273v-6.77h15.492V32.478H113.77v10.325h15.491v6.768c-12.591.579-22.06 3.074-22.06 6.062 0 2.99 9.469 5.482 22.06 6.063v21.696h11.195V61.69c12.563-.579 22.017-3.069 22.017-6.056 0-2.986-9.446-5.477-22.017-6.058h.002l.003-.002Z" fill="url(#j)"/><g opacity=".25"><path d="M89.983 92.49a56.95 56.95 0 0 0 9.184 9.117l79.584-79.588a57.082 57.082 0 0 0-9.114-9.183L89.983 92.49Z" fill="url(#k)"/><path d="M186.05 34.099 111.248 108.9a56.8 56.8 0 0 1-5.403-2.758l77.447-77.445a56.06 56.06 0 0 1 2.758 5.403v-.002Z" fill="url(#l)"/></g></g></g><defs><linearGradient id="c" x1="53.811" y1="115.017" x2="53.811" y2="18.528" gradientUnits="userSpaceOnUse"><stop stop-color="#FFB800"/><stop offset="1" stop-color="#FFD836"/></linearGradient><linearGradient id="e" x1="54.448" y1="88.088" x2="54.448" y2="44.745" gradientUnits="userSpaceOnUse"><stop stop-color="#FFB800"/><stop offset="1" stop-color="#FFD836"/></linearGradient><linearGradient id="f" x1="54.037" y1="114.741" x2="54.037" y2="18.254" gradientUnits="userSpaceOnUse"><stop stop-color="#FFB800"/><stop offset="1" stop-color="#FFD836"/></linearGradient><linearGradient id="g" x1="64.201" y1="114.741" x2="64.201" y2="18.254" gradientUnits="userSpaceOnUse"><stop stop-color="#FFB800"/><stop offset="1" stop-color="#FFD836"/></linearGradient><linearGradient id="h" x1="134.11" y1="114.074" x2="134.11" y2="4.129" gradientUnits="userSpaceOnUse"><stop stop-color="#FFB800"/><stop offset="1" stop-color="#FFD836"/></linearGradient><linearGradient id="j" x1="134.836" y1="83.39" x2="134.836" y2="34.002" gradientUnits="userSpaceOnUse"><stop stop-color="#FFB800"/><stop offset="1" stop-color="#FFD836"/></linearGradient><linearGradient id="k" x1="134.366" y1="113.76" x2="134.366" y2="3.817" gradientUnits="userSpaceOnUse"><stop stop-color="#FFB800"/><stop offset="1" stop-color="#FFD836"/></linearGradient><linearGradient id="l" x1="145.949" y1="113.76" x2="145.949" y2="3.817" gradientUnits="userSpaceOnUse"><stop stop-color="#FFB800"/><stop offset="1" stop-color="#FFD836"/></linearGradient><radialGradient id="d" cx="0" cy="0" r="1" gradientUnits="userSpaceOnUse" gradientTransform="rotate(-125.36 66.12 32.442) scale(98.4641)"><stop stop-color="#FFC701"/><stop offset="1" stop-color="#F7AA00" stop-opacity="0"/></radialGradient><radialGradient id="i" cx="0" cy="0" r="1" gradientUnits="userSpaceOnUse" gradientTransform="rotate(-125.36 107.35 9.673) scale(112.196)"><stop stop-color="#FFC701"/><stop offset="1" stop-color="#F7AA00" stop-opacity="0"/></radialGradient><filter id="a" x=".267" y=".736" width="194.322" height="126.306" filterUnits="userSpaceOnUse" color-interpolation-filters="sRGB"><feFlood flood-opacity="0" result="BackgroundImageFix"/><feColorMatrix in="SourceAlpha" values="0 0 0 0 0 0 0 0 0 0 0 0 0 0 0 0 0 0 127 0" result="hardAlpha"/><feOffset dy="3.81"/><feGaussianBlur stdDeviation="1.905"/><feComposite in2="hardAlpha" operator="out"/><feColorMatrix values="0 0 0 0 0 0 0 0 0 0 0 0 0 0 0 0 0 0 0.1 0"/><feBlend in2="BackgroundImageFix" result="effect1_dropShadow_1_365"/><feBlend in="SourceGraphic" in2="effect1_dropShadow_1_365" result="shape"/></filter></defs></svg>